<svg xmlns="http://www.w3.org/2000/svg" xmlns:xlink="http://www.w3.org/1999/xlink" width="523.81209" height="592.90824" viewBox="0 0 523.81209 592.90824">
  <defs>
    <clipPath id="clip-path">
      <path d="M362.677,316.85914l.82246,142.00117.29812,30.74272a5.18466,5.18466,0,0,1-5.27883,5.234L277.028,493.35343l-69.72048-1.0799L19.01,471.77351,31.8998,311.74694,0,212.16227l24.37047-9.89653,180.7544,15.15016-14.2944-49.8013,42.384-6.68547,27.51015-39.377,58.88373-6.3844,43.73824,55.60263,5.88489,80.64613Z" style="fill: none"/>
    </clipPath>
    <clipPath id="clip-path-2">
      <path d="M343.36833,277.30139a9.96385,9.96385,0,0,0-10.95923-2.96678c-7.64064,2.77115-20.24479,13.05243-34.414,47.66228a150.12386,150.12386,0,0,1-16.58692,30.08234c9.21637,9.99705,25.24491,25.78891,42.30812,35.30217a139.09179,139.09179,0,0,0,18.64915-22.91025C371.65977,318.21712,351.81054,287.25776,343.36833,277.30139Z" style="fill: none"/>
    </clipPath>
    <clipPath id="clip-path-3">
      <path d="M303.56912,269.14734c.99474,10.88157-9.93856,20.77613-24.42061,22.10045-14.48181,1.32407-27.02832-6.42385-28.02331-17.30554s10.99733-4.74613,25.47925-6.07032S302.57413,258.26565,303.56912,269.14734Z" style="fill: none"/>
    </clipPath>
  </defs>
  <title>Asset 8</title>
  <g style="isolation: isolate">
    <g id="Layer_2" data-name="Layer 2">
      <g id="OBJECTS">
        <g>
          <path d="M275.63392,586.35265S53.17238,598.68007,132.29009,373.36139C191.08019,205.93356,3.877,232.66769.10127,133.83077-4.03793,25.479,119.56269-16.69987,213.57107,5.91077c94.00822,22.61068,284.44277,45.233,284.44277,45.233l25.79825,541.76445L246.27463,580.76331Z" style="fill: #59aa9b"/>
          <path d="M82.893,187.67739a16.51094,16.51094,0,0,0,6.64811-1.91956c4.05392-2.448,5.76335-7.578,5.69355-12.313a11.1416,11.1416,0,0,0-1.32923-5.61884c-1.88245-3.12345-5.71813-4.356-9.21907-5.377-10.00111-2.91664-20.53787-6.46907-27.05818-14.594-3.75359-4.67743-5.8404-10.50517-9.51938-15.24159s-10.04549-8.373-15.58323-6.07056c-5.41707,2.25209-7.37214,8.94874-7.54356,14.81285C24.10764,171.26362,55.01182,191.0122,82.893,187.67739Z" style="fill: #8fcdc8"/>
          <g>
            <path d="M400.55456,507.87787c0,11.67613-84.76691,21.14134-189.33241,21.14134-27.796,0-54.19306-.66873-77.97062-1.87028,0,0-7.31488-12.32975-9.71909-19.13466-2.13031-6.02927-5.40908-18.54961-5.40908-18.54961,27.49122-1.73671,59.25816-2.72813,93.09879-2.72813C315.78765,486.73653,400.55456,496.20186,400.55456,507.87787Z" style="fill: #689992;opacity: 0.4;mix-blend-mode: multiply"/>
            <g>
              <g>
                <g>
                  <path d="M514.23923,385.2452s-95.96674,3.83912-148.71638,101.8268l1.2002,4.2713c23.26931-18.8723,118.67546-78.45623,118.67546-78.45623-10.4441,13.69953-98.36542,67.257-118.41728,79.37478l1.19627,4.25742S493.81565,478.71986,514.23923,385.2452Z" style="fill: #8fcdc8"/>
                  <path d="M475.8925,498.50248s-46.10878-35.06193-108.26626-9.7412l-1.08186,2.44734c18.06889.15692,85.32061,9.07641,85.32061,9.07641-10.11747,2.3617-71.57427-6.48689-85.55323-8.55l-1.0783,2.43948S430.50258,534.13608,475.8925,498.50248Z" style="fill: #8fcdc8"/>
                  <path d="M351.20767,418.47716c5.18335-4.87442,12.6737-8.60159,13.80607-15.62622.47851-2.96763-.34493-5.96783-.97385-8.9072-1.182-5.52336-1.68719-11.28819-.50235-16.81081s4.20974-10.80268,8.94456-13.88262c3.5023-2.27826,7.69533-3.24068,11.38416-5.20264a23.47043,23.47043,0,0,0,8.15135-7.20342c3.17272-4.51941,4.63638-9.9844,6.06257-15.31889s2.93322-10.79493,6.17206-15.26727,8.62776-7.81329,14.0973-7.05437c6.819.94608,11.478,8.02134,11.89855,14.89285s-2.40692,13.498-5.48465,19.65618c-2.03655,4.07469-4.27339,8.59532-3.04984,12.98312,1.34115,4.81014,6.30637,7.57158,9.16009,11.66949,3.39969,4.88191,3.554,11.344,2.51935,17.20244-.80476,4.55578-2.35346,9.17177-5.60716,12.4605-3.78985,3.83076-9.26909,5.30266-14.26529,7.32151s-10.17167,5.28657-11.447,10.52226c-.67893,2.788-.128,5.70449.06243,8.56767a34.5023,34.5023,0,0,1-15.67341,30.80833c-8.01482,5.05985-17.80407,6.1567-26.89486,4,25.05346-28.911,49.835-109.39777,52.94515-119.7212.21591-.71616.32724-1.09464.32724-1.09464S374.445,448.221,357.57008,462.75842c-.8619-.25289-1.71852-.52459-2.56187-.83622-9.0393-3.34083-13.10121-14.52875-12.78478-23.61781A28.923,28.923,0,0,1,351.20767,418.47716Z" style="fill: #8fcdc8"/>
                </g>
                <g>
                  <g>
                    <g>
                      <g>
                        <path d="M379.11473,175.09967l4.113,321.83912a16.14517,16.14517,0,0,1-16.43012,16.349l-161.709-2.94023a16.14527,16.14527,0,0,1-15.83991-15.35673l.05813-320.41577c-.44914-9.21465,1.57106-15.04363,10.79653-15.04363l162.86729-.37086A16.14543,16.14543,0,0,1,379.11473,175.09967Z" style="fill: #3f3956"/>
                        <path d="M201.8938,177.96826l.01438,309.05581a5.1351,5.1351,0,0,0,5.11035,5.07189l151.548,2.722a5.13664,5.13664,0,0,0,5.11121-5.19231l-1.78131-307.53022c-.017-2.8026.36766-10.9419-5.33093-10.9419l-149.47178,1.5659A5.13615,5.13615,0,0,0,201.8938,177.96826Z" style="fill: #fff"/>
                      </g>
                      <g style="clip-path: url(#clip-path)">
                        <g>
                          <g>
                            <path d="M267.98185,443.45615s12.28047,54.73605,13.42636,56.62674,76.02818,4.09644,76.4,3.78124,12.97636-2.8359,12.97636-2.8359,11.32051-34.9828,1.28585-89.81176C372.07044,411.21647,327.14527,443.86412,267.98185,443.45615Z" style="fill: #689992"/>
                            <g style="opacity: 0.30000000000000004">
                              <path d="M373.40631,419.28l-3.07762-6.86561a195.1451,195.1451,0,0,1-45.17388,21.60215l-24.67117,17.9234a8.1188,8.1188,0,0,0,4.75116,5.88267,20.767,20.767,0,0,0,7.66436,1.61014,102.58929,102.58929,0,0,0,24.2133-1.24063c3.32535-.57,7.28047-1.1127,9.59215,1.34459,1.37224,1.45863,1.71546,3.57738,1.996,5.56011.82356,5.82246,1.45567,12.396-2.23414,16.97461-2.99221,3.7128-7.99369,5.01106-12.01382,7.57564a21.3561,21.3561,0,0,0-9.07039,13.36319c16.90113.6245,32.25811.99622,32.426.85392.37209-.31507,12.97624-2.8359,12.97624-2.8359S380.98686,469.44364,373.40631,419.28Z" style="fill: #689992;mix-blend-mode: multiply"/>
                              <path d="M291.72144,501.37611c6.77849.47691,16.1223.93305,25.658,1.323,1.39829-5.5279.04559-13.52687-.98441-17.90938a4.37711,4.37711,0,0,0-.69442-1.73045,4.61237,4.61237,0,0,0-1.8403-1.21581q-10.87369-4.88166-21.747-9.76345a2.48611,2.48611,0,0,0-1.11025-.3018,1.7612,1.7612,0,0,0-1.39681,2.01111,6.44564,6.44564,0,0,0,1.09341,2.48863c2.446,4.19094,2.89489,9.2702,2.53091,14.109C292.95335,494.07475,292.243,497.71443,291.72144,501.37611Z" style="fill: #689992;mix-blend-mode: multiply"/>
                            </g>
                          </g>
                          <g>
                            <g>
                              <path d="M54.0945,270.78365s-1.6561-3.57983,3.519-8.33935,6.34041-.41228,6.215-12.00718,0-13.68859,0-13.68859H78.5897s.81606,15.62154,3.55406,17.87621c2.73784,2.25466,9.37695,3.13057,10.24746,6.55767.87038,3.42734,3.00351,14.21748,3.00351,14.21748l-29.34992,13.8476Z" style="fill: #fff"/>
                              <path d="M62.88324,241.89329s4.37022.85956,17.17589,0c0,0-.80451-7.08988-1.46943-7.08988s-13.81615.04583-14.76124.45258S62.88324,241.89329,62.88324,241.89329Z" style="fill: #f29c67"/>
                            </g>
                            <g>
                              <path d="M82.38507,275.20917s-9.12741-7.68487-17.2672-1.89793A15.09923,15.09923,0,0,0,64.923,297.893c8.53056,6.49217,15.64034,2.28809,21.36523-6.09661S83.01731,275.69309,82.38507,275.20917Z" style="fill: #c55754"/>
                              <path d="M82.38507,275.20917s-.33314-.2798-.92577-.69134c-.10276.19146-.19873.38721-.28291.5896-.62449,1.502-.7706,3.24682-1.708,4.55455-1.18017,1.64651-3.26107,2.15242-5.10125,2.84782a16.45776,16.45776,0,0,0-8.32237,6.73769,17.04083,17.04083,0,0,0-2.21635,7.73023c.34862.314.70891.62178,1.09452.91523,8.53056,6.49217,15.64034,2.28809,21.36523-6.09661S83.01731,275.69309,82.38507,275.20917Z" style="fill: #c55754;opacity: 0.30000000000000004;mix-blend-mode: multiply"/>
                              <path d="M66.00057,272.49923a11.6872,11.6872,0,0,0-4.42995-5.52533s-1.49256,1.59355-1.07931,2.0669c.38782.4441,3.41432,2.13473,4.62484,4.12212a6.90879,6.90879,0,0,0-4.84686,6.96589s3.12477-4.82944,5.186-5.0521c0,0,4.60087,3.54973,6.84042,2.95165a37.03174,37.03174,0,0,0-4.64437-3.9985s3.41824-2.34412,5.62449-1.38477C73.27585,272.64509,70.07228,268.30989,66.00057,272.49923Z" style="fill: #b7c868"/>
                            </g>
                            <g>
                              <path d="M105.838,271.56777s-9.12728-7.685-17.2672-1.89805A15.09924,15.09924,0,0,0,88.376,294.2513c8.53056,6.4923,15.64023,2.28821,21.36536-6.09636C115.46625,279.77024,106.47045,272.05156,105.838,271.56777Z" style="fill: #c55754"/>
                              <path d="M109.74136,288.15494c5.72489-8.3847-3.271-16.10338-3.90324-16.58717a19.81043,19.81043,0,0,0-3.62533-2.27948,7.07914,7.07914,0,0,0-.27944,1.64626,4.78211,4.78211,0,0,1-.20877,1.61309c-.47,1.13188-1.83134,1.39584-2.90386,1.8886-1.66016.76286-2.85593,2.31672-4.30768,3.45966a10.20258,10.20258,0,0,1-6.71852,2.11617c-1.79078-.07434-3.67286-.88095-5.4602-.32712a15.14486,15.14486,0,0,0,6.04181,14.56635C96.90656,300.7436,104.01623,296.53939,109.74136,288.15494Z" style="fill: #c55754;opacity: 0.30000000000000004;mix-blend-mode: multiply"/>
                              <path d="M89.45369,268.8577a11.68819,11.68819,0,0,0-4.43007-5.52532s-1.49251,1.59355-1.07928,2.06689c.38782.444,3.41431,2.13486,4.625,4.12213a6.9088,6.9088,0,0,0-4.847,6.96576s3.12468-4.82919,5.186-5.052c0,0,4.601,3.54973,6.84043,2.95166a37.01432,37.01432,0,0,0-4.64435-3.99838s3.41822-2.34437,5.62447-1.38477C96.72888,269.00369,93.52531,264.66824,89.45369,268.8577Z" style="fill: #b7c868"/>
                            </g>
                            <g>
                              <g>
                                <path d="M128.69689,243.74686c-.43848-3.80828,1.30671-7.952-.35418-11.36315a3.59725,3.59725,0,0,0-3.36664-2.269c-1.80552.22094-2.8284,2.30836-3.20209,4.18836s-.48183,3.9652-1.6949,5.39568c-2.62556,3.09568-8.20778.81681-10.917,3.83089-1.49749,1.66581-1.44047,4.32635-.76252,6.50975s1.86709,4.17631,2.38172,6.409.14049,4.95711-1.68215,6.20978c-1.11885.76913-2.58141.84593-3.65823,1.67957-2.30271,1.78243-1.51294,5.49387-1.13606,8.48424a3.15971,3.15971,0,0,1-.12718,1.71508,2.84788,2.84788,0,0,1-1.26152,1.174c-2.06137,1.18288-4.4313,1.88528-6.11284,3.61339-1.80515,1.85492-2.51591,4.60505-2.74973,7.25441a19.955,19.955,0,0,0,1.43586,9.87086,12.38814,12.38814,0,0,0,6.81032,6.708,12.59025,12.59025,0,0,0,9.228-.654,29.74258,29.74258,0,0,0,7.84119-5.50321,46.19986,46.19986,0,0,0,10.43-12.99135c3.65-7.2017,4.506-15.4865,4.715-23.529.06931-2.66559.46167-5.76335-.77146-8.208C132.15443,249.12362,129.14649,247.65209,128.69689,243.74686Z" style="fill: #b7c868"/>
                                <path d="M128.69689,243.74686c-.43848-3.80828,1.30671-7.952-.35418-11.36315a3.59725,3.59725,0,0,0-3.36664-2.269c-1.80552.22094-2.8284,2.30836-3.20209,4.18836s-.48183,3.9652-1.6949,5.39568c-2.62556,3.09568-8.20778.81681-10.917,3.83089-1.49749,1.66581-1.44047,4.32635-.76252,6.50975s1.86709,4.17631,2.38172,6.409.14049,4.95711-1.68215,6.20978c-1.11885.76913-2.58141.84593-3.65823,1.67957-2.30271,1.78243-1.51294,5.49387-1.13606,8.48424a3.15971,3.15971,0,0,1-.12718,1.71508,2.84788,2.84788,0,0,1-1.26152,1.174c-2.06137,1.18288-4.4313,1.88528-6.11284,3.61339-1.80515,1.85492-2.51591,4.60505-2.74973,7.25441a19.955,19.955,0,0,0,1.43586,9.87086,12.38814,12.38814,0,0,0,6.81032,6.708,12.59025,12.59025,0,0,0,9.228-.654,29.74258,29.74258,0,0,0,7.84119-5.50321,46.19986,46.19986,0,0,0,10.43-12.99135c3.65-7.2017,4.506-15.4865,4.715-23.529.06931-2.66559.46167-5.76335-.77146-8.208C132.15443,249.12362,129.14649,247.65209,128.69689,243.74686Z" style="fill: #b7c868;opacity: 0.30000000000000004;mix-blend-mode: multiply"/>
                              </g>
                              <g>
                                <path d="M148.11931,311.74952c2.59959-.47027,5.83748-6.76473,6.15744-9.53194.13594-1.17587.23139-2.28575.28177-3.46924s.56379-2.496,1.63275-2.85274a8.12271,8.12271,0,0,1,2.47733.06169c2.05906-.02544,3.5845-2.19912,3.92907-4.345s-.13735-4.33164-.24663-6.5052a4.81788,4.81788,0,0,1,.42223-2.61545c.76692-1.35454,2.44464-1.67809,3.772-2.40151a7.12345,7.12345,0,0,0,2.937-8.53621c-.45049-1.13532-1.21261-2.34732-.7733-3.48756.34579-.89741,1.29322-1.31559,2.03731-1.882,2.5761-1.9611,2.81068-5.87887,2.55078-9.22314-.213-2.73944-1.166-6.11529-3.74167-6.49365a4.32166,4.32166,0,0,0-3.90831,2.13092,27.407,27.407,0,0,0-2.07267,4.35376,2.76024,2.76024,0,0,1-.88255,1.22232c-1.35921.89-2.80014-.93268-4.23146-1.68547-2.04026-1.07289-4.472.16233-6.31476,1.57906-9.29059,7.14259-14.36773,19.949-12.66976,31.95864.6632,4.69082,1.60424,9.59215,2.54676,14.21465C142.754,307.82758,144.88772,312.3342,148.11931,311.74952Z" style="fill: #b7c868"/>
                                <path d="M146.99357,317.11412c2.59972-.47028,6.96322-12.12933,7.28318-14.89654.13594-1.17587.23139-2.28575.28177-3.46924s.56379-2.496,1.63275-2.85274a8.12271,8.12271,0,0,1,2.47733.06169c2.05906-.02544,3.5845-2.19912,3.92907-4.345s-.13735-4.33164-.24663-6.5052a4.81788,4.81788,0,0,1,.42223-2.61545c.76692-1.35454,2.44464-1.67809,3.772-2.40151a7.12345,7.12345,0,0,0,2.937-8.53621c-.45049-1.13532-1.21261-2.34732-.7733-3.48756.34579-.89741,1.29322-1.31559,2.03731-1.882,2.5761-1.9611,2.81068-5.87887,2.55078-9.22314-.213-2.73944-1.166-6.11529-3.74167-6.49365a4.32166,4.32166,0,0,0-3.90831,2.13092,27.407,27.407,0,0,0-2.07267,4.35376,2.76024,2.76024,0,0,1-.88255,1.22232c-1.35921.89-2.80014-.93268-4.23146-1.68547-2.04026-1.07289-4.472.16233-6.31476,1.57906-9.29059,7.14259-14.36773,19.949-12.66976,31.95864.6632,4.69082,1.60424,9.59215,2.54676,14.21465C142.754,307.82758,143.762,317.6988,146.99357,317.11412Z" style="fill: #b7c868;opacity: 0.30000000000000004;mix-blend-mode: multiply"/>
                              </g>
                              <path d="M142.5275,312.53082a4.9538,4.9538,0,0,0,3.80816-3.02466c.68114-1.97412-.25032-4.21809.24183-6.2539.73377-3.03608,4.17717-4.34048,5.77515-6.9799,2.29177-3.78554.15631-8.8535,1.08739-13.23859.62966-2.96591,2.60378-5.36631,4.19905-7.89538s2.887-5.6745,1.94316-8.5458a25.27123,25.27123,0,0,0-2.27838-4.0726,4.8665,4.8665,0,0,1-.64637-1.85037c-.23483-2.4546,2.22161-4.0742,3.81307-5.87887a11.61569,11.61569,0,0,0,2.51149-8.92415,17.14157,17.14157,0,0,0-3.7928-8.58943c-1.63656-2.0465-3.77522-3.84649-6.29187-4.16968-3.12108-.4006-6.10558,1.54981-8.31478,3.91421a10.24719,10.24719,0,0,1-2.64764,2.3655c-2.66694,1.34152-6.21434-.51156-8.6344,1.27836-2.08238,1.54022-2.05928,4.842-3.58291,6.99243-1.61567,2.27985-4.57765,2.81649-7.23562,3.28688-2.658.47065-5.636,1.29937-6.90752,3.81111-1.85922,3.67237,1.09981,8.64767-.92565,12.22038-1.47414,2.60021-4.91512,3.17-6.74055,5.508-3.345,4.284.5053,11.51638-2.53668,16.04549-2.58288,3.84564-8.53241,3.32609-11.4585,6.88651a9.23151,9.23151,0,0,0-1.81524,4.75829,15.50765,15.50765,0,0,0,2.32,10.19809,20.1795,20.1795,0,0,0,8.53228,6.93971,33.46212,33.46212,0,0,0,25.38611,1.27676,24.21829,24.21829,0,0,0,7.7348-4.41286C138.32759,312.23835,139.79113,313.072,142.5275,312.53082Z" style="fill: #b7c868"/>
                              <path d="M151.60625,272.33383c1.42646-1.73512-6.73254,3.95021-12.36465,7.13915a23.49237,23.49237,0,0,1-5.98565,2.56286c7.94048-12.6667,15.12439-24.7798,16.968-29.90576,1.83526-5.10261-3.70837,4.0323-11.51847,17.14285a28.8776,28.8776,0,0,1-.95935-7.38615c-.21959-6.63091.13173-16.77235-.39544-14.62706a97.496,97.496,0,0,0,.631,23.22864c-2.8364,4.76432-5.94114,9.99472-9.08305,15.22587-.51141-.8592-1.78721-3.63624-2.08152-10.3238-.37-8.41419.22217-21.28315-.66627-18.5608a93.19214,93.19214,0,0,0,1.41315,31.10276c-3.83924,6.36942-7.68328,12.63966-11.11062,17.9642-.55285-.997-1.72331-3.81946-2.00349-10.188-.37024-8.4142.22218-21.283-.66652-18.5608a93.21982,93.21982,0,0,0,1.343,30.79457c-4.3529,6.65536-7.88948,11.48382-9.64868,12.556l2.39708.57s5.85183-8.70542,13.22717-20.03945a80.12969,80.12969,0,0,0,27.8799-7.66005c2.20108-1.69715-9.26332,2.68-16.98184,4.77647-5.6201,1.52658-8.51363,1.2571-9.67255.99769,3.20554-4.94028,6.64234-10.29406,9.981-15.59856A69.17324,69.17324,0,0,0,151.60625,272.33383Z" style="fill: #b7c868;opacity: 0.30000000000000004;mix-blend-mode: multiply"/>
                            </g>
                            <g>
                              <path d="M96.16509,299.03564s-.12682-12.33343-9.5124-15.34973-18.79412,4.01976-18.155,15.36423c.62474,11.09121,8.19878,14.26283,17.96481,13.65959S96.20945,299.85945,96.16509,299.03564Z" style="fill: #c55754"/>
                              <path d="M95.153,293.17632a3.70825,3.70825,0,0,0-1.8548.90417c-.77417.66591-1.37838,1.52609-2.12109,2.23083a10.14507,10.14507,0,0,1-3.76195,2.14419c-3.77252,1.28683-7.83332,1.12438-11.792.90381a13.57541,13.57541,0,0,1-5.67893-1.17145c-.48613-.25486-.97373-.55617-1.46281-.75794-.01536.53048-.01487,1.06871.01622,1.62021.62474,11.09109,8.19878,14.26295,17.96481,13.65959,9.76619-.60323,9.747-12.85028,9.70263-13.67409A22.82447,22.82447,0,0,0,95.153,293.17632Z" style="fill: #c55754;opacity: 0.30000000000000004;mix-blend-mode: multiply"/>
                              <path d="M87.80582,283.89654a12.37171,12.37171,0,0,0,1.2555-7.11987s-2.1115-.21688-2.19777.42076c-.08085.59819.59021,4.14633-.103,6.3935a6.33461,6.33461,0,0,0-8.17088.42677s5.516-.48895,6.981,1.05975c0,0,.3018,6.01243,2.15476,7.46995a40.76859,40.76859,0,0,0,0-6.33132s3.87832,1.321,4.56782,3.73516C92.29328,289.95124,93.45035,284.58788,87.80582,283.89654Z" style="fill: #b7c868"/>
                            </g>
                            <g>
                              <path d="M42.70948,310.34054l-.3034-.78068c-1.44953-3.72889-7.64531-19.67436-8.79083-22.70147-1.29925-3.433-13.38175-35.839-15.20055-39.89113s-2.98828-20.256-1.94881-21.76657C17.50512,223.69008,25.82,216,33.09545,223.27818s31.70022,62.82927,31.70022,62.82927L73.43806,312.78s-11.63042,3.6027-16.82728,4.28937S42.70948,310.34054,42.70948,310.34054Z" style="fill: #be8c5b"/>
                              <path d="M68.08305,296.2527c-1.04881.41781-1.96528,1.13925-2.976,1.65377-2.60771,1.32738-5.642,1.182-8.53155,1.0085a12.83518,12.83518,0,0,1-3.96778-.66209c-2.93789-1.156-4.7127-4.25152-6.22736-7.15268q-5.45289-10.44366-10.3469-21.19971a21.88123,21.88123,0,0,0-3.81983-6.40247c-1.72307-1.76645-4.29-2.85028-6.56627-2.045a2.9776,2.9776,0,0,0-1.27688.8286c3.95291,10.42678,8.4776,22.55008,9.24476,24.57679,1.14552,3.027,7.3413,18.97258,8.79071,22.70147.19452.50026.30352.78068.30352.78068s8.70456,7.4154,13.90142,6.72885S73.43806,312.78,73.43806,312.78Z" style="fill: #be8c5b;opacity: 0.30000000000000004;mix-blend-mode: multiply"/>
                              <g>
                                <path d="M56.57551,298.915c2.8896.17351,5.92384.31888,8.53155-1.0085.12288-.06255.24429-.12866.36484-.19637a3.36529,3.36529,0,0,0-.01315-.38831,1.75029,1.75029,0,0,0-.37725-.99794,1.97578,1.97578,0,0,0-.95554-.50751,21.16159,21.16159,0,0,0-6.39448-.64341,28.95037,28.95037,0,0,0-7.977,1.0826,7.99633,7.99633,0,0,0,2.85323,1.99735A12.83518,12.83518,0,0,0,56.57551,298.915Z" style="fill: #e9cba5"/>
                                <path d="M46.85052,291.98558a47.37978,47.37978,0,0,1,6.14663-2.2887,13.07337,13.07337,0,0,0,3.38126-1.189,6.128,6.128,0,0,0,2.622-3.27558,3.69184,3.69184,0,0,0,.217-1.67588,3.73447,3.73447,0,0,0-2.706-2.751,9.6026,9.6026,0,0,0-7.49589.94435,29.18883,29.18883,0,0,0-5.3947,3.972q1.362,2.69963,2.75959,5.37848Q46.61041,291.54111,46.85052,291.98558Z" style="fill: #e9cba5"/>
                                <path d="M44.47263,299.58886a4.3417,4.3417,0,0,0,2.769,6.72185c2.58682.52065,6.28094-1.40948,8.74413-2.10192a42.05675,42.05675,0,0,0,5.34275-1.76289,8.51418,8.51418,0,0,0,2.90432-1.87127,4.39048,4.39048,0,0,0,1.239-2.86453c-.12055.06771-.242.13382-.36484.19637-2.60771,1.32738-5.642,1.182-8.53155,1.0085a12.83518,12.83518,0,0,1-3.96778-.66209,7.99633,7.99633,0,0,1-2.85323-1.99735c-.483.14881-.96267.31-1.43429.50063A8.09664,8.09664,0,0,0,44.47263,299.58886Z" style="fill: #e9cba5"/>
                                <path d="M44.47263,299.58886a4.3417,4.3417,0,0,0,2.769,6.72185c2.58682.52065,6.28094-1.40948,8.74413-2.10192a42.05675,42.05675,0,0,0,5.34275-1.76289,8.51418,8.51418,0,0,0,2.90432-1.87127,4.39048,4.39048,0,0,0,1.239-2.86453c-.12055.06771-.242.13382-.36484.19637-2.60771,1.32738-5.642,1.182-8.53155,1.0085a12.83518,12.83518,0,0,1-3.96778-.66209,7.99633,7.99633,0,0,1-2.85323-1.99735c-.483.14881-.96267.31-1.43429.50063A8.09664,8.09664,0,0,0,44.47263,299.58886Z" style="fill: #e9cba5;opacity: 0.30000000000000004;mix-blend-mode: multiply"/>
                                <path d="M40.90186,291.77717c.9569,1.67822,3.1597,1.351,4.5821.77527.45944-.18592.91374-.37615,1.36656-.56686q-.23943-.44349-.47015-.88538-1.39847-2.67823-2.75959-5.37848C41.51689,287.70567,39.89778,290.016,40.90186,291.77717Z" style="fill: #e9cba5"/>
                                <path d="M40.90186,291.77717c.9569,1.67822,3.1597,1.351,4.5821.77527.45944-.18592.91374-.37615,1.36656-.56686q-.23943-.44349-.47015-.88538-1.39847-2.67823-2.75959-5.37848C41.51689,287.70567,39.89778,290.016,40.90186,291.77717Z" style="fill: #e9cba5;opacity: 0.30000000000000004;mix-blend-mode: multiply"/>
                                <path d="M39.80675,277.95083c1.03883-.44693,2.05323-1.00728,3.07636-1.38785,2.55794-.95173,5.37679-1.246,7.79351-2.59345a6.19484,6.19484,0,0,0,3.41763-5.05346c.02519-2.74558-2.51186-4.93057-5.09229-5.24515s-5.12128.78375-7.42362,2.05485a47.86964,47.86964,0,0,0-5.40859,3.48154q-.16811.125-.3356.25633.09972.21843.19932.43685Q37.87543,273.94883,39.80675,277.95083Z" style="fill: #e9cba5"/>
                                <path d="M32.8041,275.29962a3.88566,3.88566,0,0,0,3.456,3.31969,6.58686,6.58686,0,0,0,3.54668-.66848q-1.92236-4.0063-3.77328-8.05034-.09917-.21806-.19932-.43685C34.05213,270.85849,32.4175,272.75814,32.8041,275.29962Z" style="fill: #e9cba5"/>
                                <path d="M32.8041,275.29962a3.88566,3.88566,0,0,0,3.456,3.31969,6.58686,6.58686,0,0,0,3.54668-.66848q-1.92236-4.0063-3.77328-8.05034-.09917-.21806-.19932-.43685C34.05213,270.85849,32.4175,272.75814,32.8041,275.29962Z" style="fill: #e9cba5;opacity: 0.30000000000000004;mix-blend-mode: multiply"/>
                                <path d="M34.05677,261.41134a17.22172,17.22172,0,0,1,5.30487-2.83172,22.25426,22.25426,0,0,0,3.19964-1.09772,7.20025,7.20025,0,0,0,3.14879-3.16732,4.148,4.148,0,0,0,.52112-2.28243,3.58432,3.58432,0,0,0-.40158-1.256,5.82944,5.82944,0,0,0-5.12633-2.90275,12.64915,12.64915,0,0,0-5.82565,1.68375,13.08672,13.08672,0,0,0-4.04335,2.91369,12.555,12.555,0,0,0-2.12758,3.78075,8.49492,8.49492,0,0,0-.70575,4.175,4.25923,4.25923,0,0,0,.21554.84581,7.52223,7.52223,0,0,1,3.68331,1.921A24.04978,24.04978,0,0,0,34.05677,261.41134Z" style="fill: #e9cba5"/>
                                <path d="M30.35,263.56561a1.94081,1.94081,0,0,0,1.54981-.37222,7.52223,7.52223,0,0,0-3.68331-1.921A3.6105,3.6105,0,0,0,30.35,263.56561Z" style="fill: #e9cba5"/>
                                <path d="M30.35,263.56561a1.94081,1.94081,0,0,0,1.54981-.37222,7.52223,7.52223,0,0,0-3.68331-1.921A3.6105,3.6105,0,0,0,30.35,263.56561Z" style="fill: #e9cba5;opacity: 0.30000000000000004;mix-blend-mode: multiply"/>
                              </g>
                              <path d="M27.25862,244.822c2.34881-1.18263,4.78077-2.17417,7.12354-3.37032a8.595,8.595,0,0,0,2.19126-1.45,3.57631,3.57631,0,0,0,1.13311-2.38812,1.87423,1.87423,0,0,0-.42272-1.31141,2.08186,2.08186,0,0,0-.70216-.46351,9.266,9.266,0,0,0-4.53329-.52349,9.18705,9.18705,0,0,0-2.85482.58014,11.343,11.343,0,0,0-2.9288,2.0476,12.98164,12.98164,0,0,0-1.69752,1.66814,6.90965,6.90965,0,0,0-1.39362,3.1581c-.15286.92384-.20337,2.86429.73706,3.41284C24.74332,246.66755,26.502,245.20315,27.25862,244.822Z" style="fill: #e9cba5"/>
                            </g>
                          </g>
                          <g>
                            <path d="M129.52635,349.679s-30.96823-24.9393-34.21911-21.4735,9.77783,15.14685,9.77783,15.14685-37.45645-8.26514-39.3502-5.52816,25.407,14.11107,25.407,14.11107-35.09361-12.00276-36.78931-7.45177,35.92363,14.52407,35.92363,14.52407-32.37992-4.91091-31.72507-1.13384c.6546,3.77706,31.57537,9.16832,31.57537,9.16832s-20.1498.64477-20.15865,3.04333C69.961,371.94344,176.28614,402.25188,246.6885,366.19a78.54841,78.54841,0,0,1-27.72371-39.17312C202.28592,339.84693,174.70954,351.08227,129.52635,349.679Z" style="fill: #f5b3a5"/>
                            <g>
                              <path d="M246.68838,366.19a80.64624,80.64624,0,0,1-10.6068-9.61992c-12.22616,10.39114-38.53208,16.76965-44.812,17.29583-6.2684.52533-60.72907,1.74937-101.373-6.816-2.228.08012-19.9205.78793-19.92885,3.03534C69.961,371.94344,176.28614,402.25188,246.68838,366.19Z" style="fill: #f5b3a5;opacity: 0.30000000000000004;mix-blend-mode: multiply"/>
                              <path d="M88.44752,366.73884c-11.19329-2.444-21.26472-5.6519-28.88422-9.85008-.71359.22549-1.08826.546-1.01219.98491C59.1133,361.11717,81.99442,365.55093,88.44752,366.73884Z" style="fill: #f5b3a5;opacity: 0.30000000000000004;mix-blend-mode: multiply"/>
                            </g>
                            <path d="M295.49543,315.5653l-44.38067-27.85618s-11.60289,23.5023-32.15,39.3078A78.54841,78.54841,0,0,0,246.6885,366.19C267.16062,355.70367,284.59654,339.60779,295.49543,315.5653Z" style="fill: #db4f4f"/>
                            <path d="M289.61805,326.759l-2.053-16.17121L257.30734,291.596l-9.505,2.03679c-1.71041,2.84844-4.06817,6.52289-7.03126,10.56342-1.0896,10.26211-2.05227,26.87213,1.22834,38.70064,1.40972,5.08258-1.213,9.67461-5.91781,13.67323a80.64624,80.64624,0,0,0,10.6068,9.61992C263.8032,357.42342,278.79276,344.73215,289.61805,326.759Z" style="fill: #c55754;opacity: 0.30000000000000004;mix-blend-mode: multiply"/>
                          </g>
                          <g>
                            <polygon points="40.009 305.469 43.044 355.457 41.853 438.602 115.683 441.404 162.374 440.941 152.838 324.872 154.407 300.168 146.564 310.363 137.153 302.913 124.213 310.755 111.273 304.089 101.47 314.219 90.491 305.266 76.766 309.187 65.395 300.168 52.455 309.971 40.009 305.469" style="fill: #e9cba5"/>
                            <path d="M92.01866,428.24516,68.652,429.92767l-24.93119,8.74549,71.96172,2.73047,46.69162-.46254L152.8384,324.87175l1.56836-24.70386-7.8423,10.19526-9.411-7.45029-12.94,7.84241-9.80474-5.051c5.40048,7.27027,24.0506,32.38787,24.5301,33.187.56083.93477,1.8693,9.34663,1.8693,9.34663s1.30846,47.29412,0,51.59356-6.54268,8.78579-6.54268,8.78579L112.955,396.46666s5.42112,14.20691,7.85126,17.75861,2.43,9.72044,2.43,9.72044L112.955,428.24516Z" style="fill: #e9cba5;opacity: 0.30000000000000004;mix-blend-mode: multiply"/>
                          </g>
                          <path d="M246.6885,298.86361s13.08806,127.4814,21.29335,144.59254c4.48868,9.36039,44.19242,16.60793,73.18244,7.15464,48.92024-15.95223,26.78428-49.47211,26.78428-49.47211s-8.823-59.55566-12.68906-89.52347c-2.04761-15.87223-1.517-50.29579-53.8513-46.50336S246.6885,298.86361,246.6885,298.86361Z" style="fill: #db4f4f"/>
                          <path d="M367.94857,401.13868s-.19072-1.28732-.52631-3.56521a14.67629,14.67629,0,0,0-5.56674,1.02472,37.74822,37.74822,0,0,0-8.84367,5.51894c-13.17826,9.98784-26.85456,19.75055-42.42216,25.3254a15.56383,15.56383,0,0,1-7.22456,1.24579c-2.44587-.33166-4.87147-2.03015-5.27993-4.46435-.30979-1.84632.55961-3.67667,1.5353-5.27452,7.07194-11.58016,20.20473-17.78921,30.11663-27.05548a28.41369,28.41369,0,0,0,7.1303-9.448,31.63982,31.63982,0,0,0,1.98875-9.67178,112.4937,112.4937,0,0,0,.3555-12.21817c-.07238-2.862-.31778-5.905-2.03028-8.19914-1.406-1.88331-3.59729-2.98177-5.692-4.04766q-9.42232-4.79466-18.36934-10.45614c-4.62275-2.92536-9.66588-8.34083-15.4167-5.69331-5.16466,2.37767-9.98636,7.03028-14.77807,10.16135-4.942,3.22937-9.94053,6.39841-14.59695,10.03736a57.24863,57.24863,0,0,0-13.16855,13.81946c-.13468.2089-.25228.42567-.38315.63653,4.20163,32.77336,9.26578,66.42669,13.20517,74.64169,4.48881,9.36039,44.19242,16.60793,73.18257,7.15464C390.08465,434.65856,367.94857,401.13868,367.94857,401.13868Z" style="fill: #c55754;opacity: 0.30000000000000004;mix-blend-mode: multiply"/>
                          <g>
                            <path d="M281.40821,352.07923c-41.7044,58.74635-115.0073,75.72391-115.0073,75.72391s-28.8218-19.341-29.58021-12.13546,19.34083,21.23707,19.34083,21.23707c-12.13547,4.93008-40.95724,4.17152-40.95724,4.17152,58.86208,40.776,159.3544-3.9899,208.512-53.69487C306.65312,377.86814,290.62458,362.07628,281.40821,352.07923Z" style="fill: #f5b3a5"/>
                            <path d="M268.03567,415.66768c-46.16285,26.66814-79.88895,20.1584-97.042,10.906-2.94281.84715-4.59276,1.22944-4.59276,1.22944s-28.8218-19.341-29.58021-12.13546,19.34083,21.23707,19.34083,21.23707c-12.13547,4.93008-40.95724,4.17152-40.95724,4.17152,58.86208,40.776,159.3544-3.9899,208.512-53.69487a115.538,115.538,0,0,1-10.36435-6.57782A204.8487,204.8487,0,0,1,268.03567,415.66768Z" style="fill: #f5b3a5;opacity: 0.30000000000000004;mix-blend-mode: multiply"/>
                            <path d="M343.36833,277.30139a9.96385,9.96385,0,0,0-10.95923-2.96678c-7.64064,2.77115-20.24479,13.05243-34.414,47.66228a150.12386,150.12386,0,0,1-16.58692,30.08234c9.21637,9.99705,25.24491,25.78891,42.30812,35.30217a139.09179,139.09179,0,0,0,18.64915-22.91025C371.65977,318.21712,351.81054,287.25776,343.36833,277.30139Z" style="fill: #db4f4f"/>
                            <g style="clip-path: url(#clip-path-2)">
                              <path d="M70.83391,417.943c-.37922-1.51675,84.19-10.99769,87.60305-2.2753s43.91777,37.94379,109.59871,0,79.26-86.46528,83.81075-100.49708,13.27312-4.55074,13.27312-4.55074l-7.31119,52.71351s-29.09521,51.95509-30.61208,52.33431-102.014,48.92109-102.014,48.92109-74.6701-.75844-74.68961,0-53.49165-7.60292-53.49165-7.60292Z" style="fill: #c55754;opacity: 0.30000000000000004;mix-blend-mode: multiply"/>
                            </g>
                          </g>
                          <g>
                            <path d="M348.3714,237.25481s-1.46686,9.33483,1.60031,12.66853,5.06747,6.26767,3.33383,8.268-7.33442,12.13523-20.53651,9.6015c-13.20185-2.53374,0-30.538,0-30.538Z" style="fill: #3f3956"/>
                            <path d="M337.226,160.92913s15.0886,18.44528,16.174,23.99383.72624,34.64119-2.62467,37.49036-14.34737-2.49871-14.34737-2.49871" style="fill: #c55754"/>
                            <path d="M350.77537,222.41332c3.31085-2.81513,3.70076-31.24653,2.66276-37.27826-3.28185,4.501-2.17135,22.762-7.37312,20.59267-6.7189-2.802-8.67409-13.31834-8.67409-13.31834l-.58874-.151-.37418,27.65638S347.42446,225.26262,350.77537,222.41332Z" style="fill: #c55754;opacity: 0.30000000000000004;mix-blend-mode: multiply"/>
                            <path d="M235.01692,210.98235s6.44695,20.89938,5.68851,34.15174c-.75856,13.2526-11.75637,39.41975,11.75625,57.24361s73.192,12.51481,82.29376-36.02706-7.964-72.05462-7.964-72.05462l-86.84462-3.413Z" style="fill: #f5b3a5"/>
                            <path d="M247.50248,245.16862a21.77511,21.77511,0,0,0-6.93812,1.63914c-.25043,2.35924-.73005,5.04694-1.239,7.96948,2.352-1.28647,4.87589-2.26671,7.48212-1.90814a34.787,34.787,0,0,0,3.87955.72329,4.79135,4.79135,0,0,0,4.41016-2.59591C257.5826,245.65769,250.84761,244.94841,247.50248,245.16862Z" style="fill: #f5b3a5;opacity: 0.30000000000000004;mix-blend-mode: multiply"/>
                            <path d="M245.11658,191.08618,237.3,201.67393l-2.28305,9.30842s1.461,4.73752,2.91012,11.13028a29.10083,29.10083,0,0,0,7.11777,3.89282c6.68658,2.526,14.0683,2.7446,21.14552,1.74273q.33861-1.5439.67734-3.08769a31.90508,31.90508,0,0,0,8.833,3.82315,8.56666,8.56666,0,0,0,4.651.22082,3.561,3.561,0,0,0,2.6662-3.44626c3.26046,2.22972,7.00484,4.56745,10.87689,3.78689,3.7869-.76347,6.47633-4.32045,10.20264-5.33854,4.04213-1.10435,8.44405,1.16887,10.88611,4.574s3.26317,7.70688,3.56288,11.88651.14538,8.40854.91917,12.52673c.9521,5.066,3.29893,9.93278,3.14324,15.085-.14648,4.839-2.48409,9.30534-4.76677,13.57455-2.58645,4.83706-5.31778,9.84382-9.75829,13.06361a28.10837,28.10837,0,0,1-10.11674,4.21637,61.32166,61.32166,0,0,1-33.23848-1.42778c-4.65826-1.54046-9.27376-3.75384-12.45508-7.489-3.46863-4.07248-4.84874-9.46116-7.02389-14.34848-1.642-3.68932-4.1263-7.38652-7.51752-9.34073-1.04647,12.07255.68078,25.70056,14.72954,36.35037,23.5125,17.82411,73.19227,12.51481,82.294-36.02706,9.10148-48.542-7.96407-72.05462-7.96407-72.05462Z" style="fill: #f5b3a5;opacity: 0.30000000000000004;mix-blend-mode: multiply"/>
                            <path d="M275.08414,217.70026s4.58982,38.304-2.38676,43.10035-17.99222-4.93438-14.8711-11.17649,6.996-1.04266,9.09767-3.55059S269.39267,214.23335,275.08414,217.70026Z" style="fill: #f29c67"/>
                            <path d="M275.32868,219.94226a2.61634,2.61634,0,0,0-.77712.59144c-.90245,1.02055-.85551,2.53939-.77994,3.89946a123.83115,123.83115,0,0,1-.68114,21.53789c-.3641,3.05033-.913,6.25218-2.87228,8.61817a4.02071,4.02071,0,0,1-1.403,1.15941,3.63536,3.63536,0,0,1-2.2151.14807c-2.7285-.56981-4.90968-3.03853-7.6968-3.07577a1.66325,1.66325,0,0,0-1.2716.41621,1.06891,1.06891,0,0,0-.16319.24613c1.32715,5.58763,9.59363,11.19148,15.22869,7.31722C278.65587,256.70417,276.17891,228.18393,275.32868,219.94226Z" style="fill: #f29c67;opacity: 0.30000000000000004;mix-blend-mode: multiply"/>
                            <path d="M300.93806,235.30145c0,3.66144-1.35626,6.62956-3.02932,6.62956s-3.02932-2.96812-3.02932-6.62956,1.35626-6.62968,3.02932-6.62968S300.93806,231.64,300.93806,235.30145Z" style="fill: #3f3956"/>
                            <path d="M253.58656,235.30145c0,3.66144-1.35627,6.62956-3.0292,6.62956s-3.02944-2.96812-3.02944-6.62956,1.35638-6.62968,3.02944-6.62968S253.58656,231.64,253.58656,235.30145Z" style="fill: #3f3956"/>
                            <path d="M294.87942,202.64274s.48649,10.92581,15.62167,17.27187c0,0,7.2624-1.35134,7.93359-10.68483S294.87942,202.64274,294.87942,202.64274Z" style="fill: #3f3956"/>
                            <path d="M240.42747,202.05192s8.15945,17.09,20.0118,19.64463c0,0,3.121-7.52735,3.67188-9.82244,0,0,4.24869,10.18949,14.33336,11.8419,0,0,2.00644-5.83217,2.00644-6.9552V215.6379s10.83216,7.89452,15.78916,4.77341c0,0,4.40622-7.89464-1.10153-18.35939S252.91193,193.05588,240.42747,202.05192Z" style="fill: #3f3956"/>
                            <path d="M334.74032,221.60365s9.57937-10.09241,13.68466-9.4082,12.82939,13.61314,7.69766,22.37276-18.98744,8.24658-20.698,5.85183S334.74032,221.60365,334.74032,221.60365Z" style="fill: #f5b3a5"/>
                            <path d="M327.04279,212.16227s-2.56593,38.69228,0,39.88966,4.96067-9.06609,4.96067-9.06609,1.15056,6.8521,5.02274,6.334-.40134-36.55546-3.65283-40.09008S327.04279,212.16227,327.04279,212.16227Z" style="fill: #3f3956"/>
                            <path d="M246.43389,174.27574s8.69768-24.74367,11.247-26.24322,35.84077-16.04586,44.68862-16.04586c8.8476,0,33.82635,23.544,35.05837,28.94247s-.9999,58.98548-.9999,58.98548L314.21634,207.1173l-30.29222-14.24624-35.54081-6.14847Z" style="fill: #fff"/>
                            <path d="M336.428,219.91474s.55888-13.42022.96292-27.50535c-1.10436-2.21768-2.15022-4.46337-3.2193-6.62919-1.4257-2.88837-3.14987-5.89656-6.08469-7.33184-4.55591-2.22824-9.906.14992-14.92714.99425a22.45274,22.45274,0,0,1-16.11762-3.30568,18.54582,18.54582,0,0,1-8.20038-13.79292c-.38376-5.68446,2.09934-11.60879.08209-16.95385-4.44138,1.70845-7.3209,5.82062-10.27059,9.48746s-6.76535,7.34326-11.53629,7.489c-5.26924.1611-9.79245-4.36838-10.9961-9.3835a15.61575,15.61575,0,0,1-.35279-2.11126c-3.51361,6.846-9.33422,23.40388-9.33422,23.40388l1.94942,12.44685,35.54081,6.14847,30.29222,14.24624Z" style="fill: #3f3956;opacity: 0.1;mix-blend-mode: multiply"/>
                            <path d="M291.32956,227.04652s7.32643-4.65384,19.72512,3.11472a3.22455,3.22455,0,0,0,1.0332-3.6908c-.9392-2.16053-9.29907-5.54192-13.61978-5.07226S289.263,222.17493,291.32956,227.04652Z" style="fill: #3f3956"/>
                            <path d="M253.79128,225.88552s-8.06877-3.19878-18.79218,6.75539a3.22443,3.22443,0,0,1-1.70648-3.43189c.51783-2.29816,8.0958-7.186,12.42805-7.53435S254.90829,220.713,253.79128,225.88552Z" style="fill: #3f3956"/>
                            <g>
                              <path d="M303.56912,269.14734c.99474,10.88157-9.93856,20.77613-24.42061,22.10045-14.48181,1.32407-27.02832-6.42385-28.02331-17.30554s10.99733-4.74613,25.47925-6.07032S302.57413,258.26565,303.56912,269.14734Z" style="fill: #c55754"/>
                              <path d="M303.56912,269.14734c.99474,10.88157-9.93856,20.77613-24.42061,22.10045-14.48181,1.32407-27.02832-6.42385-28.02331-17.30554s10.99733-4.74613,25.47925-6.07032S302.57413,258.26565,303.56912,269.14734Z" style="fill: #c55754;opacity: 0.30000000000000004;mix-blend-mode: multiply"/>
                              <path d="M300.48351,280.02706c-18.02723-8.165-24.04,5.80649-25.6621,11.34558a35.0702,35.0702,0,0,0,4.3271-.12485C288.48641,290.39387,296.34284,285.97437,300.48351,280.02706Z" style="fill: #c55754"/>
                              <g style="clip-path: url(#clip-path-3)">
                                <path d="M254.33615,266.8101s-1.71755,5.15262,3.43508,6.62476,5.64329-4.41655,5.398-6.91931S254.33615,266.8101,254.33615,266.8101Z" style="fill: #fff"/>
                                <path d="M263.90532,266.76094s.049,6.35467,3.48423,6.90679,6.57561-.96906,6.183-6.90679S263.90532,266.76094,263.90532,266.76094Z" style="fill: #fff"/>
                                <path d="M274.35778,266.8101s-.29456,5.59426,5.59426,5.05444,5.98688-5.54524,5.10359-6.72295S274.35778,266.8101,274.35778,266.8101Z" style="fill: #fff"/>
                                <path d="M285.84073,265.23965a5.985,5.985,0,0,0,7.21363,3.70788c5.4962-1.25415,3.58241-6.554,3.58241-6.554S286.38056,262.47305,285.84073,265.23965Z" style="fill: #fff"/>
                              </g>
                            </g>
                            <path d="M234.25479,212.16227s.0016,10.77921,19.69894,5.25363c19.69747-5.52581-9.84959-18.28528-9.84959-18.28528l-9.84935,6.24Z" style="fill: #3f3956"/>
                            <path d="M336.428,219.91461s-42.57036-24.14068-88.41383-18.66671c0,0-14.4995,1.17132-11.46183,15.22856,0,0-35.92117-15.57079-30.96049-31.82126s53.30339-14.6649,60.27125-12.65834C305.66059,183.45783,333.8391,214.80451,336.428,219.91461Z" style="fill: #c55754"/>
                            <path d="M281.53539,177.7134c.75131,4.08968-.23212,8.46482-3.36872,11.10325-4.49311,3.77952-11.1567,2.76155-16.91317,1.60522-4.90575-.9854-9.94348-1.92128-14.8845-1.13065-6.36548,1.01846-12.04244,4.82293-18.42525,5.725-8.23306,1.16322-16.54268-2.77114-22.52148-8.5496-.0639-.06169-.12657-.12559-.18994-.188-2.24131,15.64858,31.31989,30.19785,31.31989,30.19785-3.03755-14.05724,11.462-15.22856,11.462-15.22856,45.84347-5.474,88.41383,18.66684,88.41383,18.66684C334.194,215.50494,312.90284,191.55989,281.53539,177.7134Z" style="fill: #c55754;opacity: 0.30000000000000004;mix-blend-mode: multiply"/>
                          </g>
                        </g>
                      </g>
                    </g>
                    <g>
                      <path d="M241.86434,460.67186l1.36929,23.55121a1.31647,1.31647,0,0,0,1.29077,1.23977l71.31462,1.27344a1.31642,1.31642,0,0,0,1.34-1.3162V458.56417a1.3165,1.3165,0,0,0-1.35319-1.316l-72.684,2.03126A1.31658,1.31658,0,0,0,241.86434,460.67186Z" style="fill: #f29c67"/>
                      <g>
                        <polygon points="259.089 464.83 259.566 480.979 267.197 481.388 267.197 479.957 261.882 479.213 261.474 474.369 265.426 473.62 265.153 471.985 261.406 471.985 261.065 466.465 267.197 465.92 267.197 463.944 259.089 464.83" style="fill: #fff"/>
                        <polygon points="294.384 464.183 294.861 480.963 302.493 481.388 302.493 479.901 297.178 479.128 296.769 474.095 300.721 473.317 300.449 471.617 296.701 471.617 296.36 465.883 302.493 465.316 302.493 463.263 294.384 464.183" style="fill: #fff"/>
                        <polygon points="268.219 463.263 268.696 481.388 277.418 481.388 277.126 479.275 270.809 479.071 270.332 463.263 268.219 463.263" style="fill: #fff"/>
                        <polygon points="279.238 463.263 279.238 481.388 281.76 481.388 280.997 463.263 279.238 463.263" style="fill: #fff"/>
                        <polygon points="283.401 463.672 285.649 481.115 289.533 481.388 292.463 463.263 290.555 463.263 287.625 478.253 285.309 463.263 283.401 463.672" style="fill: #fff"/>
                        <path d="M312.64528,466.32916c.13628-6.47312-8.58537-3.40694-8.58537-3.40694l-.47691,18.46544h2.18032l.34076-7.9041,3.67937,8.24473,1.31878-1.29457-2.61336-7.76771S312.509,472.80229,312.64528,466.32916Zm-6.74568,4.56524v-6.95s4.98144-1.18411,4.97407,3.13426C310.86445,472.53453,305.8996,470.8944,305.8996,470.8944Z" style="fill: #fff"/>
                        <path d="M247.23287,463.263l.74947,18.80607s9.81187-.0682,9.60739-8.78973C257.38537,464.55756,247.23287,463.263,247.23287,463.263Zm2.453,16.63116-.74959-14.17816a8.724,8.724,0,0,1,6.81376,7.089C256.79246,478.90492,249.68587,479.89414,249.68587,479.89414Z" style="fill: #fff"/>
                      </g>
                    </g>
                  </g>
                  <g>
                    <path d="M83.89457,374.25353c1.70132-.09487,3.67421-.20522,5.81312-.326l-.38438-3.36357-5.75192.37849Z" style="fill: #be8c5b"/>
                    <path d="M119.16209,372.15935c2.72952-.18887,4.48463-.33375,4.65962-.4038.211-.08442.416-1.45186.59819-3.50143l-5.603.36865Z" style="fill: #be8c5b"/>
                    <path d="M110.34939,372.72437c2.08349-.12731,4.04114-.24958,5.78338-.36263l-.40416-3.5356-5.72293.37651Z" style="fill: #be8c5b"/>
                    <path d="M101.53251,373.24957c1.95827-.1144,3.90747-.22942,5.79456-.34248l-.4002-3.50168-5.73278.37725Z" style="fill: #be8c5b"/>
                    <path d="M92.71418,373.75732c1.87345-.10654,3.82693-.21824,5.80412-.33264l-.39322-3.44012-5.74234.378Z" style="fill: #be8c5b"/>
                    <path d="M113.68076,350.90655l-.5531-4.83952c-1.69589-.05333-3.50906-.11084-5.39692-.17068l.45824,4.69439Z" style="fill: #be8c5b"/>
                    <path d="M117.81394,358.34665l7.15562-.06624c.04264-1.26938.0768-2.52587.10052-3.722l-7.66067-.35612Z" style="fill: #be8c5b"/>
                    <path d="M86.90079,349.3667l-.47421-4.149c-1.91895-.06131-3.73246-.11944-5.3829-.17228l.39113,4.007Z" style="fill: #be8c5b"/>
                    <path d="M104.754,350.39327l-.52656-4.60825c-1.77185-.05616-3.58082-.11367-5.39236-.17142l.43574,4.46435Z" style="fill: #be8c5b"/>
                    <path d="M95.8274,349.88l-.50025-4.37821c-1.82789-.05825-3.635-.116-5.38767-.172l.41347,4.23543Z" style="fill: #be8c5b"/>
                    <path d="M124.8205,346.42671c-.18064,0-3.41358-.09941-8.19435-.24945l.48084,4.92639,8.00057.46008C125.11985,348.55186,125.03653,346.42671,124.8205,346.42671Z" style="fill: #be8c5b"/>
                    <polygon points="100.876 366.526 106.563 366.22 106.043 361.668 100.414 361.785 100.876 366.526" style="fill: #be8c5b"/>
                    <polygon points="100.094 358.511 105.676 358.459 105.124 353.631 99.593 353.374 100.094 358.511" style="fill: #be8c5b"/>
                    <polygon points="108.954 358.429 114.535 358.377 114.039 354.046 108.501 353.788 108.954 358.429" style="fill: #be8c5b"/>
                    <polygon points="109.698 366.052 115.377 365.746 114.89 361.485 109.264 361.602 109.698 366.052" style="fill: #be8c5b"/>
                    <polygon points="83.233 367.475 88.935 367.168 88.349 362.035 82.714 362.152 83.233 367.475" style="fill: #be8c5b"/>
                    <polygon points="82.374 358.675 87.959 358.623 87.293 352.802 81.776 352.546 82.374 358.675" style="fill: #be8c5b"/>
                    <path d="M118.51969,365.5771l6.12288-.3292c.078-1.24334.14918-2.58559.21062-3.96963l-6.73942.13972Z" style="fill: #be8c5b"/>
                    <polygon points="92.055 367 97.749 366.694 97.196 361.852 91.564 361.969 92.055 367" style="fill: #be8c5b"/>
                    <polygon points="91.234 358.593 96.817 358.541 96.209 353.217 90.684 352.96 91.234 358.593" style="fill: #be8c5b"/>
                    <path d="M122.0947,386.87807a2.2435,2.2435,0,0,0-2.13006-1.99083c-7.36575-.43267-39.57827-2.32188-40.399-2.32188-.92681,0-1.8536-7.97-1.8536-7.97s1.19173-.065,3.18391-.17536l-.37455-3.27693-3.4094.22439-.50308-3.53646,3.5125-.18887-.61983-5.42334-3.59864.07472-.61626-3.55256,3.81344-.03539-.72218-6.31793-3.92662.158-.61269-3.93,4.13551.23765-.44815-3.92047c-3.41884-.10949-5.55961-.17818-5.55961-.17818a18.48121,18.48121,0,0,0-7.22849-2.96554c-4.26307-.74148-4.44826,3.15085-2.59481,4.07763s8.29254,2.07968,8.56091,4.07752c0,0,3.57161,26.84129,5.14,34.49164a4.69712,4.69712,0,1,0,6.60056,2.59628c8.31219.56981,23.23613,1.30649,32.03175,1.46907a4.667,4.667,0,1,0,7.6184-1.62317ZM80.22555,388.8592a2.1836,2.1836,0,1,1-2.2413-2.17774c.16761.01634.344.03305.53528.05013A2.18189,2.18189,0,0,1,80.22555,388.8592Zm38.59136,3.52663a2.17485,2.17485,0,0,1-1.39334-3.85191c1.1198.00172,2.04278-.01376,2.72822-.04829a2.17582,2.17582,0,0,1-1.33488,3.9002Z" style="fill: #be8c5b"/>
                  </g>
                </g>
              </g>
              <g>
                <path d="M452.21779,480.84083a4.57478,4.57478,0,0,0,4.95945-.43292A5.82179,5.82179,0,0,0,455.95984,470.3c-2.35457-.94829-5.04867,1.70881-6.022,3.75666C448.8444,476.35731,450.1069,479.53519,452.21779,480.84083Z" style="fill: #8fcdc8"/>
                <path d="M447.39855,398.03932c1.49758.9263,8.48891-2.99577,9.91153-4.03377,1.668-1.21728,2.47253-4.60333,2.22873-6.654a5.70461,5.70461,0,0,0-4.76431-5.0086c-2.50645-.40146-7.47917.6455-7.26081,2.90226C447.85949,388.81938,445.28754,396.73369,447.39855,398.03932Z" style="fill: #8fcdc8"/>
                <path d="M438.51138,342.40339a2.677,2.677,0,0,0,2.90189-.25339,3.40657,3.40657,0,0,0-.71235-5.91449c-1.37777-.55495-2.95424.9999-3.52368,2.19813A3.34638,3.34638,0,0,0,438.51138,342.40339Z" style="fill: #8fcdc8"/>
                <path d="M162.88829,482.558a2.67748,2.67748,0,0,0,2.90217-.25326,3.40655,3.40655,0,0,0-.71251-5.9145c-1.37774-.55494-2.95424.9999-3.52381,2.19814A3.34636,3.34636,0,0,0,162.88829,482.558Z" style="fill: #8fcdc8"/>
                <path d="M177.09164,473.08382a2.6767,2.6767,0,0,0,2.902-.25327,3.40655,3.40655,0,0,0-.71235-5.91449c-1.37777-.555-2.95424.9999-3.52368,2.19826A3.34609,3.34609,0,0,0,177.09164,473.08382Z" style="fill: #8fcdc8"/>
                <path d="M389.90487,330.09478a2.67674,2.67674,0,0,0,2.902-.25326,3.4067,3.4067,0,0,0-.71235-5.9145c-1.37777-.55482-2.95424.9999-3.5238,2.19826A3.34615,3.34615,0,0,0,389.90487,330.09478Z" style="fill: #8fcdc8"/>
                <path d="M383.58793,307.85289a4.6817,4.6817,0,0,0,5.95788,2.54455,6.4365,6.4365,0,0,0,2.99921-3.68835c1.60142-4.09865,1.55644-10.36066-4.34528-8.30028C384.93522,299.54856,382.23007,304.5896,383.58793,307.85289Z" style="fill: #8fcdc8"/>
                <path d="M436.22932,361.09862a4.68186,4.68186,0,0,0,6.35982-1.23424,6.43614,6.43614,0,0,0,.41486-4.7358c-.9725-4.29146-4.52137-9.45109-8.25223-4.4356C432.68794,353.46744,433.27508,359.15817,436.22932,361.09862Z" style="fill: #8fcdc8"/>
                <path d="M176.29781,492.6047a4.68159,4.68159,0,0,0,6.35983-1.23412,6.4361,6.4361,0,0,0,.41485-4.7358c-.97249-4.29158-4.52137-9.45108-8.25223-4.4356C172.75644,484.97352,173.34357,490.66425,176.29781,492.6047Z" style="fill: #8fcdc8"/>
              </g>
            </g>
          </g>
          <path d="M114.70524,502.198c3.69375,11.00383-9.80278,19.60542-19.81875,1.61825-4.64573-8.34317-9.18566-17.02365-9.5661-26.56542a40.03983,40.03983,0,0,1,8.55944-26.689c3.64852-4.48414,13.19988-8.03264,15.10371-.065.88968,3.72275.02212,8.13009-.01831,11.91428C108.91325,467.29466,107.29869,480.13327,114.70524,502.198Z" style="fill: #59aa9b"/>
          <path d="M111.49257,529.80456a8.97972,8.97972,0,0,0,4.42909,3.90585,17.22343,17.22343,0,0,0,5.85812,1.24382,5.54423,5.54423,0,0,0,3.29177-.53687,4.10713,4.10713,0,0,0,1.56726-4.14265,12.06509,12.06509,0,0,0-1.8956-4.26061c-2.00681-3.2827-4.56082-10.61773-9.6144-9.01583C110.34386,518.5149,109.46573,525.93337,111.49257,529.80456Z" style="fill: #59aa9b"/>
        </g>
      </g>
    </g>
  </g>
</svg>
