<svg xmlns="http://www.w3.org/2000/svg" width="139.99693" height="162.91436" viewBox="0 0 139.99693 162.91436">
  <title>Asset 8</title>
  <g id="Layer_2" data-name="Layer 2">
    <g id="OBJECTS">
      <g>
        <path d="M0,58.71366s78.0958,3.1242,121.0224,82.8646l-.9767,3.4759C101.1096,129.69626,23.47,81.20806,23.47,81.20806c8.4992,11.1484,80.0478,54.7324,96.3656,64.5936l-.9735,3.4646S16.6203,134.78146,0,58.71366Z" style="fill: #313348"/>
        <path d="M31.2058,150.88016s37.5224-28.5327,88.1049-7.9272l.8804,1.9916c-14.7041.1277-69.4322,7.3862-69.4322,7.3862,8.2334,1.9219,58.2457-5.2789,69.6215-6.9578l.8775,1.9852S68.1432,179.87806,31.2058,150.88016Z" style="fill: #313348"/>
        <path d="M132.6718,85.75716c-4.2181-3.9667-10.3136-6.9998-11.2351-12.7163-.3894-2.415.2807-4.8565.7925-7.2485a32.79288,32.79288,0,0,0,.4088-13.6803,17.83262,17.83262,0,0,0-7.2789-11.2974c-2.8501-1.854-6.2623-2.6372-9.2642-4.2338a19.09976,19.09976,0,0,1-6.6334-5.862c-2.5819-3.6778-3.773-8.1251-4.9336-12.4662s-2.387-8.7847-5.0227-12.4242S82.4841-.52984,78.0331.08776c-5.5492.7699-9.3406,6.5276-9.6828,12.1195s1.9587,10.9844,4.4633,15.9958c1.6573,3.3159,3.4776,6.9947,2.4819,10.5654-1.0914,3.9144-5.132,6.1616-7.4543,9.4964-2.7666,3.9728-2.8922,9.2315-2.0502,13.999.6549,3.7074,1.9152,7.4638,4.563,10.1401,3.0841,3.1174,7.543,4.3152,11.6088,5.9581s8.2775,4.3021,9.3153,8.5628c.5525,2.2688.1042,4.6422-.0508,6.9722a28.07728,28.07728,0,0,0,12.7547,25.0712,28.5999,28.5999,0,0,0,21.8865,3.2551c-20.388-23.5272-40.5547-89.0257-43.0857-97.4267-.1757-.5828-.2663-.8908-.2663-.8908s31.2452,86.0562,44.9777,97.8865c.7014-.2058,1.3985-.4269,2.0848-.6805,7.356-2.7187,10.6615-11.8232,10.404-19.2197A23.537,23.537,0,0,0,132.6718,85.75716Z" style="fill: #313348"/>
      </g>
    </g>
  </g>
</svg>
