<svg xmlns="http://www.w3.org/2000/svg" xmlns:xlink="http://www.w3.org/1999/xlink" width="426.26773" height="482.49679" viewBox="0 0 426.26773 482.49679">
  <defs>
    <clipPath id="clip-path">
      <path d="M295.13923,257.85359l.6693,115.5577.2426,25.0178a4.21917,4.21917,0,0,1-4.2958,4.2593l-66.3155-1.2073-56.73712-.8788L15.46993,383.91979l10.48948-130.2264L0,172.65339l19.8322-8.0536,147.0943,12.3289-11.6325-40.5273,34.49122-5.4405,22.3872-32.0442,47.9184-5.1955,35.5933,45.2483,4.789,65.6282Z" style="fill: none"/>
    </clipPath>
    <clipPath id="clip-path-2">
      <path d="M279.42623,225.66229a8.10838,8.10838,0,0,0-8.9184-2.4143c-6.2178,2.2551-16.4748,10.6218-28.0054,38.7866a122.1672,122.1672,0,0,1-13.4981,24.4804c7.5001,8.1354,20.5438,20.9865,34.4295,28.7282a113.19008,113.19008,0,0,0,15.1763-18.6439C302.44923,258.95869,286.29633,233.76459,279.42623,225.66229Z" style="fill: none"/>
    </clipPath>
    <clipPath id="clip-path-3">
      <path d="M247.03843,219.02669c.8095,8.8552-8.0878,16.9072-19.873,17.9849-11.785,1.0775-21.9951-5.2276-22.8048-14.0829s8.9494-3.8623,20.7345-4.9399S246.22873,210.17139,247.03843,219.02669Z" style="fill: none"/>
    </clipPath>
  </defs>
  <title>Asset 3</title>
  <g style="isolation: isolate">
    <g id="Layer_2" data-name="Layer 2">
      <g id="OBJECTS">
        <g>
          <path d="M224.30533,477.162S43.27061,487.19379,107.655,303.834c47.8422-136.2494-104.5-114.4937-107.5726-194.9252C-3.286,20.73429,97.29771-13.59,173.79983,4.81007s231.4738,36.80972,231.4738,36.80972l20.9941,440.877-225.8544-9.8833Z" style="fill: #5f409b"/>
          <path d="M67.45661,152.72809a13.43643,13.43643,0,0,0,5.4101-1.5621c3.299-1.9921,4.6901-6.1668,4.6333-10.0201a9.067,9.067,0,0,0-1.0817-4.5725c-1.5319-2.5418-4.6533-3.5448-7.5023-4.3757-8.1387-2.3735-16.7133-5.2644-22.0194-11.8763-3.0546-3.8064-4.7528-8.5489-7.74668-12.4033s-8.17482-6.8138-12.68132-4.9401c-4.4083,1.8327-5.9993,7.2823-6.1388,12.0544C19.61831,139.37089,44.76751,155.44189,67.45661,152.72809Z" style="fill: #7e59d4"/>
          <g>
            <path d="M325.96323,413.30079c0,9.5018-68.9816,17.2044-154.0749,17.2044-22.61982,0-44.10122-.5442-63.45092-1.522,0,0-5.9527-10.0337-7.9092-15.5714-1.7336-4.9065-4.4018-15.0953-4.4018-15.0953,22.3718-1.4133,48.2231-2.2201,75.76192-2.2201C256.98163,396.09639,325.96323,403.79909,325.96323,413.30079Z" style="fill: #4e3884"/>
            <g>
              <g>
                <g style="opacity: 0.5">
                  <path d="M418.47753,313.50479s-78.0958,3.1242-121.0224,82.8646l.9767,3.4759c18.9361-15.3579,96.5757-63.8461,96.5757-63.8461-8.4992,11.1484-80.0478,54.7324-96.3656,64.5936l.9735,3.4646S401.85723,389.57259,418.47753,313.50479Z" style="fill: #7e59d4"/>
                  <path d="M387.27173,405.67129s-37.5224-28.5327-88.1049-7.9272l-.8804,1.9916c14.7041.1277,69.4322,7.3862,69.4322,7.3862-8.2334,1.9219-58.2457-5.2789-69.6215-6.9578l-.8775,1.9852S350.33433,434.66919,387.27173,405.67129Z" style="fill: #7e59d4"/>
                  <path d="M285.80573,340.54829c4.2181-3.9667,10.3136-6.9998,11.2351-12.7163.3894-2.415-.2807-4.8565-.7925-7.2485a32.79288,32.79288,0,0,1-.4088-13.6803,17.83262,17.83262,0,0,1,7.2789-11.2974c2.8501-1.854,6.2623-2.6372,9.2642-4.2338a19.09976,19.09976,0,0,0,6.6334-5.862c2.5819-3.6778,3.773-8.1251,4.9336-12.4662s2.387-8.7847,5.0227-12.4242,7.0211-6.3583,11.4721-5.7407c5.5492.7699,9.3406,6.5276,9.6828,12.1195s-1.9587,10.9844-4.4633,15.9958c-1.6573,3.3159-3.4776,6.9947-2.4819,10.5654,1.0914,3.9144,5.132,6.1616,7.4543,9.4964,2.7666,3.9728,2.8922,9.2315,2.0502,13.999-.6549,3.7074-1.9152,7.4638-4.563,10.1401-3.0841,3.1174-7.543,4.3152-11.6088,5.9581s-8.2775,4.3021-9.3153,8.5628c-.5525,2.2688-.1042,4.6422.0508,6.9722a28.07728,28.07728,0,0,1-12.7547,25.0712,28.5999,28.5999,0,0,1-21.8865,3.2551c20.388-23.5272,40.5547-89.0257,43.0857-97.4267.1757-.5828.2663-.8908.2663-.8908s-31.2452,86.0562-44.9777,97.8865c-.7014-.2058-1.3985-.4269-2.0848-.6805-7.356-2.7187-10.6615-11.8232-10.404-19.2197A23.537,23.537,0,0,1,285.80573,340.54829Z" style="fill: #7e59d4"/>
                </g>
                <g>
                  <g>
                    <g>
                      <path d="M308.51593,142.49259l3.3471,261.9062a13.13861,13.13861,0,0,1-13.3705,13.3045L166.897,415.31059a13.13869,13.13869,0,0,1-12.8902-12.497l.0473-260.7479c-.3655-7.4987,1.2785-12.2422,8.786-12.2422l132.53812-.3018A13.13882,13.13882,0,0,1,308.51593,142.49259Z" style="fill: #3f3956"/>
                      <path d="M164.29711,144.827l.0117,251.5034a4.17885,4.17885,0,0,0,4.1587,4.1274l123.32672,2.2151a4.1801,4.1801,0,0,0,4.1594-4.2254l-1.4496-250.2619c-.0138-2.2807.2992-8.9043-4.3382-8.9043l-121.63712,1.2743A4.1797,4.1797,0,0,0,164.29711,144.827Z" style="fill: #fff"/>
                    </g>
                    <g style="clip-path: url(#clip-path)">
                      <g>
                        <g>
                          <path d="M218.07823,360.87569s9.9936,44.5431,10.9261,46.0817,61.8702,3.3336,62.1728,3.0771,10.5599-2.3078,10.5599-2.3078,9.2124-28.4683,1.0464-73.087C302.78343,334.63969,266.22423,361.20769,218.07823,360.87569Z" style="fill: #383838"/>
                          <g>
                            <path d="M303.87053,341.20159l-2.5045-5.5871a158.8052,158.8052,0,0,1-36.7616,17.5794l-20.0769,14.5857a6.60693,6.60693,0,0,0,3.8664,4.7872,16.89976,16.89976,0,0,0,6.2371,1.3103,83.48539,83.48539,0,0,0,19.7043-1.0096c2.7061-.4639,5.9247-.9055,7.8059,1.0942,1.1167,1.187,1.396,2.9112,1.6243,4.5247.6702,4.7382,1.1846,10.0876-1.8181,13.8136-2.435,3.0214-6.5051,4.0779-9.7766,6.1649a17.37914,17.37914,0,0,0-7.3813,10.8747c13.7538.5082,26.251.8107,26.3876.6949.3028-.2564,10.5598-2.3078,10.5598-2.3078S310.03943,382.02379,303.87053,341.20159Z" style="fill: #333"/>
                            <path d="M237.397,408.00979c5.5162.3881,13.12.7593,20.88,1.0766,1.1379-4.4985.0371-11.0079-.8011-14.5743a3.562,3.562,0,0,0-.5651-1.4082,3.75351,3.75351,0,0,0-1.4976-.9894q-8.8488-3.9726-17.6973-7.9453a2.02315,2.02315,0,0,0-.9035-.2456,1.43323,1.43323,0,0,0-1.1367,1.6366,5.2453,5.2453,0,0,0,.8898,2.0252c1.9905,3.4105,2.3558,7.5439,2.0596,11.4816C238.39953,402.06809,237.82143,405.03,237.397,408.00979Z" style="fill: #333"/>
                          </g>
                        </g>
                        <g>
                          <g>
                            <path d="M44.021,220.35829s-1.3477-2.9132,2.8637-6.7864,5.1597-.3355,5.0576-9.7712,0-11.1395,0-11.1395h12.0124s.6641,12.7125,2.89222,14.5473,7.63078,2.5476,8.33918,5.3365c.7083,2.7891,2.4442,11.5699,2.4442,11.5699l-23.88438,11.2689Z" style="fill: #fff"/>
                            <path d="M51.17311,196.84789s3.5564.6995,13.9774,0c0,0-.6547-5.7696-1.1958-5.7696s-11.2433.0373-12.0124.3683S51.17311,196.84789,51.17311,196.84789Z" style="fill: #f29c67"/>
                          </g>
                          <g>
                            <path d="M67.04331,223.95969s-7.4277-6.2538-14.0517-1.5445a12.28746,12.28746,0,0,0-.1586,20.0041c6.942,5.2832,12.7278,1.862,17.3866-4.9613S67.55781,224.35349,67.04331,223.95969Z" style="fill: #c55754"/>
                            <path d="M67.04331,223.95969s-.2711-.2277-.75338-.5626c-.08362.1558-.16172.3151-.23022.4798-.5082,1.2223-.6271,2.6422-1.3899,3.7064-.9604,1.3399-2.6538,1.7516-4.1513,2.3175a13.393,13.393,0,0,0-6.77258,5.483,13.86752,13.86752,0,0,0-1.80362,6.2907c.2837.2555.5769.506.8907.7448,6.942,5.2832,12.7278,1.862,17.3866-4.9613S67.55781,224.35349,67.04331,223.95969Z" style="fill: #c55754;opacity: 0.30000000000000004;mix-blend-mode: multiply"/>
                            <path d="M53.70993,221.75439a9.5108,9.5108,0,0,0-3.605-4.4964s-1.21462,1.2968-.87832,1.682c.3156.3614,2.7785,1.7372,3.7636,3.3545a5.62223,5.62223,0,0,0-3.94428,5.6687s2.54288-3.9301,4.22028-4.1113c0,0,3.7441,2.8887,5.5666,2.402A30.1355,30.1355,0,0,0,55.05331,223s2.7817-1.9076,4.5771-1.1269C59.63041,221.87309,57.02341,218.34519,53.70993,221.75439Z" style="fill: #b7c868"/>
                          </g>
                          <g>
                            <path d="M86.12881,220.99639s-7.4276-6.2539-14.0517-1.5446a12.28746,12.28746,0,0,0-.1585,20.004c6.942,5.2833,12.7277,1.8621,17.3867-4.9611C93.96411,227.67139,86.64351,221.39009,86.12881,220.99639Z" style="fill: #c55754"/>
                            <path d="M89.30531,234.49469c4.6588-6.8233-2.6619-13.1046-3.17638-13.4983a16.121,16.121,0,0,0-2.95022-1.855,5.761,5.761,0,0,0-.2274,1.3397,3.89182,3.89182,0,0,1-.1699,1.3127c-.38248.9211-1.4903,1.1359-2.3631,1.5369-1.351.6208-2.3241,1.8853-3.5055,2.8154a8.30267,8.30267,0,0,1-5.4674,1.7221c-1.4573-.0605-2.9889-.7169-4.4434-.2662a12.32459,12.32459,0,0,0,4.9167,11.8538C78.86061,244.73909,84.64631,241.31779,89.30531,234.49469Z" style="fill: #c55754;opacity: 0.30000000000000004;mix-blend-mode: multiply"/>
                            <path d="M72.79561,218.791a9.51165,9.51165,0,0,0-3.6051-4.4964s-1.21458,1.2968-.8783,1.682c.3156.3613,2.7785,1.7373,3.76372,3.3545a5.62226,5.62226,0,0,0-3.94442,5.6686s2.5428-3.9299,4.2203-4.1112c0,0,3.7442,2.8887,5.5666,2.402a30.1212,30.1212,0,0,0-3.77948-3.2538s2.78168-1.9078,4.57708-1.1269C78.716,218.90979,76.109,215.38169,72.79561,218.791Z" style="fill: #b7c868"/>
                          </g>
                          <g>
                            <g>
                              <path d="M104.73093,198.35629c-.35682-3.0991,1.06338-6.4712-.28822-9.2471a2.92737,2.92737,0,0,0-2.7397-1.8465c-1.4693.1798-2.3017,1.8785-2.6058,3.4084s-.3921,3.2268-1.37928,4.3909c-2.13662,2.5192-6.67932.6647-8.884,3.1175-1.21862,1.3556-1.17222,3.5207-.62052,5.2975s1.5194,3.3986,1.9382,5.2155.11432,4.034-1.3689,5.0534c-.9105.6259-2.1007.6884-2.977,1.3668-1.8739,1.4505-1.2312,4.4708-.9245,6.9043a2.57126,2.57126,0,0,1-.1035,1.3957,2.31752,2.31752,0,0,1-1.0266.9554c-1.6775.9626-3.6061,1.5342-4.9745,2.9405a9.58894,9.58894,0,0,0-2.23768,5.9035,16.239,16.239,0,0,0,1.16848,8.0327,10.08122,10.08122,0,0,0,5.5421,5.4588,10.24571,10.24571,0,0,0,7.5096-.5322,24.20384,24.20384,0,0,0,6.381-4.4784,37.59644,37.59644,0,0,0,8.4877-10.5721c2.9703-5.8606,3.6669-12.6026,3.837-19.1474.0564-2.1692.3757-4.6901-.6278-6.6795C107.54461,202.73179,105.09681,201.53429,104.73093,198.35629Z" style="fill: #b7c868"/>
                              <path d="M104.73093,198.35629c-.35682-3.0991,1.06338-6.4712-.28822-9.2471a2.92737,2.92737,0,0,0-2.7397-1.8465c-1.4693.1798-2.3017,1.8785-2.6058,3.4084s-.3921,3.2268-1.37928,4.3909c-2.13662,2.5192-6.67932.6647-8.884,3.1175-1.21862,1.3556-1.17222,3.5207-.62052,5.2975s1.5194,3.3986,1.9382,5.2155.11432,4.034-1.3689,5.0534c-.9105.6259-2.1007.6884-2.977,1.3668-1.8739,1.4505-1.2312,4.4708-.9245,6.9043a2.57126,2.57126,0,0,1-.1035,1.3957,2.31752,2.31752,0,0,1-1.0266.9554c-1.6775.9626-3.6061,1.5342-4.9745,2.9405a9.58894,9.58894,0,0,0-2.23768,5.9035,16.239,16.239,0,0,0,1.16848,8.0327,10.08122,10.08122,0,0,0,5.5421,5.4588,10.24571,10.24571,0,0,0,7.5096-.5322,24.20384,24.20384,0,0,0,6.381-4.4784,37.59644,37.59644,0,0,0,8.4877-10.5721c2.9703-5.8606,3.6669-12.6026,3.837-19.1474.0564-2.1692.3757-4.6901-.6278-6.6795C107.54461,202.73179,105.09681,201.53429,104.73093,198.35629Z" style="fill: #b7c868;opacity: 0.30000000000000004;mix-blend-mode: multiply"/>
                            </g>
                            <g>
                              <path d="M120.53651,253.69549c2.1155-.3827,4.75042-5.505,5.0108-7.7569.11062-.9569.1883-1.8601.2293-2.8232a2.45644,2.45644,0,0,1,1.3287-2.3215,6.61005,6.61005,0,0,1,2.016.0502c1.67562-.0207,2.917-1.7896,3.1974-3.5359a25.475,25.475,0,0,0-.2007-5.2938,3.92063,3.92063,0,0,1,.3436-2.1284c.6241-1.1023,1.9894-1.3656,3.0696-1.9543a5.79692,5.79692,0,0,0,2.3901-6.9466c-.3666-.9239-.9868-1.9102-.6293-2.8381.2814-.7303,1.0524-1.0706,1.65792-1.5315,2.09638-1.5959,2.28728-4.7841,2.07578-7.5056-.1733-2.2293-.9489-4.9765-3.0449-5.2844a3.51687,3.51687,0,0,0-3.1805,1.7341,22.30262,22.30262,0,0,0-1.6867,3.543,2.24629,2.24629,0,0,1-.7182.9947c-1.1061.7243-2.2787-.759-3.44348-1.3716-1.66032-.8731-3.63922.1321-5.13882,1.285-7.5605,5.8125-11.69218,16.2341-10.3104,26.0073.5397,3.8173,1.3055,7.8059,2.0725,11.5676C116.17031,250.50389,117.90671,254.17129,120.53651,253.69549Z" style="fill: #b7c868"/>
                              <path d="M119.62041,258.06109c2.1156-.3827,5.66652-9.8706,5.9269-12.1225.11062-.9569.1883-1.8601.2293-2.8232a2.45644,2.45644,0,0,1,1.3287-2.3215,6.61005,6.61005,0,0,1,2.016.0502c1.67562-.0207,2.917-1.7896,3.1974-3.5359a25.475,25.475,0,0,0-.2007-5.2938,3.92063,3.92063,0,0,1,.3436-2.1284c.6241-1.1023,1.9894-1.3656,3.0696-1.9543a5.79692,5.79692,0,0,0,2.3901-6.9466c-.3666-.9239-.9868-1.9102-.6293-2.8381.2814-.7303,1.0524-1.0706,1.65792-1.5315,2.09638-1.5959,2.28728-4.7841,2.07578-7.5056-.1733-2.2293-.9489-4.9765-3.0449-5.2844a3.51687,3.51687,0,0,0-3.1805,1.7341,22.30262,22.30262,0,0,0-1.6867,3.543,2.24629,2.24629,0,0,1-.7182.9947c-1.1061.7243-2.2787-.759-3.44348-1.3716-1.66032-.8731-3.63922.1321-5.13882,1.285-7.5605,5.8125-11.69218,16.2341-10.3104,26.0073.5397,3.8173,1.3055,7.8059,2.0725,11.5676C116.17031,250.50389,116.99061,258.53689,119.62041,258.06109Z" style="fill: #b7c868;opacity: 0.30000000000000004;mix-blend-mode: multiply"/>
                            </g>
                            <path d="M115.986,254.33129a4.03129,4.03129,0,0,0,3.099-2.4614c.5543-1.6065-.2037-3.4326.1968-5.0893.59712-2.4707,3.3993-3.5322,4.6997-5.6801,1.865-3.0806.1272-7.2048.8849-10.7733.5124-2.4136,2.1189-4.367,3.4171-6.4251s2.34942-4.6178,1.5813-6.9544a20.56428,20.56428,0,0,0-1.8541-3.3142,3.96036,3.96036,0,0,1-.526-1.5058c-.1911-1.9975,1.8079-3.3155,3.103-4.7841a9.45265,9.45265,0,0,0,2.0438-7.2623,13.94947,13.94947,0,0,0-3.0865-6.9899,8.328,8.328,0,0,0-5.1202-3.3932c-2.53988-.326-4.9686,1.2612-6.7664,3.1853a8.339,8.339,0,0,1-2.1546,1.925c-2.1703,1.0917-5.0571-.4163-7.0265,1.0403-1.6946,1.2534-1.6758,3.9403-2.9157,5.6903-1.3148,1.8553-3.7252,2.292-5.8882,2.6748-2.163.383-4.58648,1.0574-5.6212,3.1014-1.513,2.9885.895,7.0373-.75328,9.9447-1.19962,2.116-3.99982,2.5797-5.48532,4.4823-2.7221,3.4862.4112,9.3718-2.0643,13.0575-2.1019,3.1295-6.9435,2.7067-9.3247,5.6041a7.51238,7.51238,0,0,0-1.4772,3.8722,12.61976,12.61976,0,0,0,1.888,8.299,16.42172,16.42172,0,0,0,6.9434,5.6474,27.2308,27.2308,0,0,0,20.6587,1.039,19.70822,19.70822,0,0,0,6.29442-3.5911C112.56821,254.09329,113.75921,254.77169,115.986,254.33129Z" style="fill: #b7c868"/>
                            <path d="M123.37411,221.61979c1.16082-1.412-5.4788,3.2146-10.0621,5.8097a19.11753,19.11753,0,0,1-4.871,2.0856c6.4618-10.3079,12.30792-20.1653,13.8082-24.3367,1.4935-4.1524-3.0178,3.2814-9.3735,13.9505a23.49994,23.49994,0,0,1-.7807-6.0107c-.1787-5.3961.1072-13.649-.3218-11.9032a79.34025,79.34025,0,0,0,.5135,18.903c-2.3082,3.8771-4.83478,8.1335-7.3916,12.3905-.41618-.6992-1.4544-2.9591-1.6939-8.4013-.3011-6.8473.1808-17.3198-.5422-15.1044a75.83786,75.83786,0,0,0,1.15,25.3108c-3.1243,5.1833-6.2525,10.2859-9.0416,14.6189-.4499-.8113-1.4024-3.1082-1.6304-8.2908-.3013-6.8473.1808-17.3197-.5424-15.1044a75.86032,75.86032,0,0,0,1.0929,25.06c-3.5423,5.416-6.4203,9.3453-7.8519,10.2178l1.9507.4639s4.7621-7.0843,10.764-16.3077a65.20789,65.20789,0,0,0,22.6881-6.2336c1.7912-1.3811-7.5383,2.1809-13.81948,3.887-4.57352,1.2423-6.92822,1.023-7.87132.8119,2.6086-4.0203,5.4054-8.3771,8.12232-12.6938A56.29161,56.29161,0,0,0,123.37411,221.61979Z" style="fill: #b7c868;opacity: 0.30000000000000004;mix-blend-mode: multiply"/>
                          </g>
                          <g>
                            <path d="M78.25721,243.34919s-.1032-10.0367-7.741-12.4913-15.29428,3.2712-14.7742,12.5031c.5084,9.0258,6.672,11.6068,14.6194,11.1159S78.29331,244.01959,78.25721,243.34919Z" style="fill: #c55754"/>
                            <path d="M77.43361,238.581a3.01771,3.01771,0,0,0-1.5094.7358c-.63.5419-1.1217,1.2419-1.7261,1.8154a8.25586,8.25586,0,0,1-3.0614,1.7449c-3.07,1.0472-6.3746.915-9.5961.7355a11.04734,11.04734,0,0,1-4.6214-.9533c-.3956-.2074-.7924-.4526-1.1904-.6168-.0125.4317-.0121.8697.0132,1.3185.5084,9.0257,6.672,11.6069,14.6194,11.1159s7.9319-10.4573,7.8958-11.1277A18.574,18.574,0,0,0,77.43361,238.581Z" style="fill: #c55754;opacity: 0.30000000000000004;mix-blend-mode: multiply"/>
                            <path d="M71.45461,231.02929a10.06791,10.06791,0,0,0,1.0217-5.794s-1.7183-.1765-1.7885.3424c-.0658.4868.4803,3.3742-.0838,5.2029a5.155,5.155,0,0,0-6.6493.3473s4.4888-.3979,5.681.8624c0,0,.2456,4.8928,1.7535,6.0789a33.17627,33.17627,0,0,0,0-5.1523s3.1561,1.075,3.7172,3.0396C75.10641,235.95649,76.048,231.59189,71.45461,231.02929Z" style="fill: #b7c868"/>
                          </g>
                          <g>
                            <path d="M34.75611,252.54889l-.2469-.6353c-1.1796-3.0345-6.2216-16.0106-7.1538-18.474-1.0573-2.7937-10.8898-29.1651-12.3699-32.4626s-2.4318-16.4839-1.5859-17.7132c.8457-1.2293,7.6122-7.4873,13.5328-1.5645s25.797,51.1292,25.797,51.1292l7.033,21.7056s-9.4646,2.9318-13.6937,3.4906S34.75611,252.54889,34.75611,252.54889Z" style="fill: #be8c5b"/>
                            <path d="M55.40461,241.08449c-.8535.34-1.5993.9271-2.4218,1.3458-2.1221,1.0802-4.5913.9619-6.9428.8207a10.44509,10.44509,0,0,1-3.2289-.5388c-2.3908-.9407-3.8351-3.4598-5.0677-5.8207q-4.43745-8.49885-8.4201-17.2519a17.80641,17.80641,0,0,0-3.1085-5.2102,5.29418,5.29418,0,0,0-5.3435-1.6642,2.4232,2.4232,0,0,0-1.0391.6743c3.2168,8.4851,6.8989,18.3508,7.5232,20.0001.9322,2.4633,5.9742,15.4395,7.1537,18.474l.247.6353s7.0836,6.0345,11.3127,5.4758,13.6936-3.4906,13.6936-3.4906Z" style="fill: #be8c5b;opacity: 0.30000000000000004;mix-blend-mode: multiply"/>
                            <g>
                              <path d="M46.04,243.251c2.3515.1412,4.8207.2595,6.9428-.8207.1-.0509.1988-.1047.2969-.1598a2.73831,2.73831,0,0,0-.0107-.316,1.42436,1.42436,0,0,0-.307-.8121,1.6078,1.6078,0,0,0-.7776-.413,17.22067,17.22067,0,0,0-5.2037-.5236,23.55929,23.55929,0,0,0-6.4915.881,6.50712,6.50712,0,0,0,2.3219,1.6254A10.44509,10.44509,0,0,0,46.04,243.251Z" style="fill: #e9cba5"/>
                              <path d="M38.126,237.612a38.55718,38.55718,0,0,1,5.002-1.8625,10.63866,10.63866,0,0,0,2.7516-.9676,4.98683,4.98683,0,0,0,2.1337-2.6656,3.00425,3.00425,0,0,0,.17662-1.3638,3.039,3.039,0,0,0-2.20212-2.2387,7.81441,7.81441,0,0,0-6.1.7685,23.75285,23.75285,0,0,0-4.3901,3.2323q1.10835,2.1969,2.2457,4.3769Q37.93061,237.25029,38.126,237.612Z" style="fill: #e9cba5"/>
                              <path d="M36.19093,243.79939a3.53318,3.53318,0,0,0,2.25338,5.4701c2.1051.4237,5.1113-1.147,7.1158-1.7105a34.22572,34.22572,0,0,0,4.34782-1.4346,6.92883,6.92883,0,0,0,2.36348-1.5228,3.57289,3.57289,0,0,0,1.0083-2.3311c-.0981.0551-.1969.1089-.2969.1598-2.1221,1.0802-4.5913.9619-6.9428.8207a10.44509,10.44509,0,0,1-3.2289-.5388,6.50712,6.50712,0,0,1-2.3219-1.6254c-.3931.1211-.7834.2523-1.1672.4074A6.58887,6.58887,0,0,0,36.19093,243.79939Z" style="fill: #e9cba5"/>
                              <path d="M36.19093,243.79939a3.53318,3.53318,0,0,0,2.25338,5.4701c2.1051.4237,5.1113-1.147,7.1158-1.7105a34.22572,34.22572,0,0,0,4.34782-1.4346,6.92883,6.92883,0,0,0,2.36348-1.5228,3.57289,3.57289,0,0,0,1.0083-2.3311c-.0981.0551-.1969.1089-.2969.1598-2.1221,1.0802-4.5913.9619-6.9428.8207a10.44509,10.44509,0,0,1-3.2289-.5388,6.50712,6.50712,0,0,1-2.3219-1.6254c-.3931.1211-.7834.2523-1.1672.4074A6.58887,6.58887,0,0,0,36.19093,243.79939Z" style="fill: #e9cba5;opacity: 0.30000000000000004;mix-blend-mode: multiply"/>
                              <path d="M33.28511,237.44239c.7787,1.3657,2.5713,1.0994,3.72882.6309.37388-.1513.74358-.3061,1.11208-.4613q-.19485-.3609-.3826-.7205-1.138-2.1795-2.2457-4.3769C33.78561,234.12909,32.468,236.00919,33.28511,237.44239Z" style="fill: #e9cba5"/>
                              <path d="M33.28511,237.44239c.7787,1.3657,2.5713,1.0994,3.72882.6309.37388-.1513.74358-.3061,1.11208-.4613q-.19485-.3609-.3826-.7205-1.138-2.1795-2.2457-4.3769C33.78561,234.12909,32.468,236.00919,33.28511,237.44239Z" style="fill: #e9cba5;opacity: 0.30000000000000004;mix-blend-mode: multiply"/>
                              <path d="M32.39393,226.19079c.84538-.3637,1.67088-.8197,2.50348-1.1294,2.0816-.7745,4.37552-1.014,6.3422-2.1105a5.04122,5.04122,0,0,0,2.7812-4.1124,4.61237,4.61237,0,0,0-4.144-4.2684c-2.1-.2561-4.1676.6378-6.0412,1.6722a38.95493,38.95493,0,0,0-4.4014,2.8332q-.1368.1017-.2731.2086.08115.17775.1622.3555Q30.82226,222.934,32.39393,226.19079Z" style="fill: #e9cba5"/>
                              <path d="M26.69531,224.03329a3.16208,3.16208,0,0,0,2.8124,2.7015,5.36026,5.36026,0,0,0,2.88622-.544q-1.56438-3.26025-3.07062-6.5512-.0807-.17745-.1622-.3555C27.71093,220.41919,26.38071,221.96509,26.69531,224.03329Z" style="fill: #e9cba5"/>
                              <path d="M26.69531,224.03329a3.16208,3.16208,0,0,0,2.8124,2.7015,5.36026,5.36026,0,0,0,2.88622-.544q-1.56438-3.26025-3.07062-6.5512-.0807-.17745-.1622-.3555C27.71093,220.41919,26.38071,221.96509,26.69531,224.03329Z" style="fill: #e9cba5;opacity: 0.30000000000000004;mix-blend-mode: multiply"/>
                              <path d="M27.71471,212.73129a14.01478,14.01478,0,0,1,4.317-2.3044,18.10992,18.10992,0,0,0,2.6038-.8933,5.85937,5.85937,0,0,0,2.56242-2.5775,3.3756,3.3756,0,0,0,.42408-1.8574,2.91678,2.91678,0,0,0-.3268-1.0221,4.74386,4.74386,0,0,0-4.1717-2.3622,10.29353,10.29353,0,0,0-4.7408,1.3702,10.64979,10.64979,0,0,0-3.2904,2.3711,10.21715,10.21715,0,0,0-1.73138,3.0767,6.91291,6.91291,0,0,0-.57432,3.3975,3.466,3.466,0,0,0,.1754.6883,6.12143,6.12143,0,0,1,2.9974,1.5633A19.5716,19.5716,0,0,0,27.71471,212.73129Z" style="fill: #e9cba5"/>
                              <path d="M24.69821,214.48439a1.57939,1.57939,0,0,0,1.2612-.3029,6.12143,6.12143,0,0,0-2.9974-1.5633A2.93814,2.93814,0,0,0,24.69821,214.48439Z" style="fill: #e9cba5"/>
                              <path d="M24.69821,214.48439a1.57939,1.57939,0,0,0,1.2612-.3029,6.12143,6.12143,0,0,0-2.9974-1.5633A2.93814,2.93814,0,0,0,24.69821,214.48439Z" style="fill: #e9cba5;opacity: 0.30000000000000004;mix-blend-mode: multiply"/>
                            </g>
                            <path d="M22.18251,199.23119c1.91142-.9624,3.8905-1.7693,5.797-2.7427a6.99453,6.99453,0,0,0,1.7832-1.18,2.9103,2.9103,0,0,0,.9221-1.9434,1.52519,1.52519,0,0,0-.344-1.0672,1.69418,1.69418,0,0,0-.5714-.3772,7.54045,7.54045,0,0,0-3.6891-.426,7.4761,7.4761,0,0,0-2.3232.4721,9.23076,9.23076,0,0,0-2.3834,1.6663,10.56387,10.56387,0,0,0-1.3814,1.3575,5.6228,5.6228,0,0,0-1.1341,2.57c-.1244.7518-.1655,2.3309.5998,2.7773C20.13561,200.73309,21.56681,199.54139,22.18251,199.23119Z" style="fill: #e9cba5"/>
                          </g>
                        </g>
                        <g>
                          <path d="M105.40593,284.56169s-25.20132-20.2951-27.84682-17.4747,7.957,12.3262,7.957,12.3262-30.4813-6.726-32.0224-4.4987,20.6757,11.4833,20.6757,11.4833-28.55848-9.7676-29.9384-6.0641,29.23392,11.8194,29.23392,11.8194-26.35012-3.9964-25.81722-.9227c.5327,3.0737,25.6954,7.461,25.6954,7.461s-16.3975.5247-16.4047,2.4766c-.0056,1.5121,86.5197,26.1765,143.81172-3.1699a63.9212,63.9212,0,0,1-22.561-31.8783C164.61621,276.56059,142.17511,285.70369,105.40593,284.56169Z" style="fill: #f5b3a5"/>
                          <g>
                            <path d="M200.75,297.99809a65.62879,65.62879,0,0,1-8.6316-7.8285c-9.9494,8.4561-31.35662,13.6468-36.46712,14.075-5.1011.4275-49.4201,1.4236-82.4953-5.5467-1.81308.0652-16.2109.6412-16.2177,2.4701C56.93281,302.68009,143.45811,327.34449,200.75,297.99809Z" style="fill: #f5b3a5;opacity: 0.30000000000000004;mix-blend-mode: multiply"/>
                            <path d="M71.97681,298.44469c-9.10888-1.9889-17.3048-4.5994-23.5054-8.0158-.5807.1835-.8856.4443-.8237.8015C48.10521,293.86989,66.72541,297.478,71.97681,298.44469Z" style="fill: #f5b3a5;opacity: 0.30000000000000004;mix-blend-mode: multiply"/>
                          </g>
                          <path d="M240.46823,256.80069l-36.1161-22.6688s-9.4422,19.1257-26.163,31.9879a63.9212,63.9212,0,0,0,22.561,31.8783C217.40993,289.46449,231.59893,276.366,240.46823,256.80069Z" style="fill: #7e59d4"/>
                          <path d="M235.68533,265.90989l-1.6707-13.1598-24.6231-15.4551-7.735,1.6575c-1.3919,2.318-3.3106,5.3082-5.7219,8.5963-.8867,8.3511-1.6701,21.868.9996,31.4938,1.1472,4.1361-.9871,7.873-4.8158,11.127a65.62879,65.62879,0,0,0,8.6316,7.8285C214.67773,290.864,226.87593,280.53609,235.68533,265.90989Z" style="fill: #694bb2"/>
                        </g>
                        <g>
                          <polygon points="32.558 248.585 35.028 289.264 34.059 356.926 94.14 359.205 132.137 358.829 124.377 264.374 125.653 244.271 119.271 252.567 111.613 246.504 101.082 252.886 90.552 247.462 82.575 255.705 73.64 248.419 62.471 251.61 53.217 244.271 42.687 252.248 32.558 248.585" style="fill: #e9cba5"/>
                          <path d="M74.88293,348.49729l-19.01532,1.3692-20.2885,7.1169,58.561,2.222,37.9967-.3764-7.76-94.4549,1.2763-20.1035-6.3819,8.2967-7.6585-6.0629-10.5303,6.382-7.9789-4.1104c4.3948,5.9164,19.5719,26.3566,19.9621,27.0069.4564.7607,1.5212,7.6061,1.5212,7.6061s1.0648,38.487,0,41.9858-5.3243,7.1497-5.3243,7.1497l-17.342-9.8879s4.4116,11.5613,6.3892,14.4516,1.9775,7.9103,1.9775,7.9103l-8.3667,3.4988Z" style="fill: #e9cba5;opacity: 0.30000000000000004;mix-blend-mode: multiply"/>
                        </g>
                        <path d="M200.75013,243.20919s10.6508,103.7418,17.3281,117.6665c3.6528,7.6173,35.9629,13.5152,59.5544,5.8223,39.8103-12.9816,21.7965-40.2594,21.7965-40.2594s-7.18-48.4652-10.3261-72.8524c-1.6663-12.9165-1.2345-40.9297-43.8231-37.8435S200.75013,243.20919,200.75013,243.20919Z" style="fill: #7e59d4"/>
                        <path d="M299.42913,326.43859s-.1552-1.0476-.4283-2.9013a11.94327,11.94327,0,0,0-4.5301.8339,30.71884,30.71884,0,0,0-7.1968,4.4912c-10.7242,8.1279-21.8537,16.0726-34.5223,20.6093a12.66559,12.66559,0,0,1-5.8792,1.0138c-1.9904-.2699-3.9643-1.6521-4.2967-3.633a6.47638,6.47638,0,0,1,1.2494-4.2923c5.755-9.4237,16.4422-14.4765,24.5083-22.0172a23.12256,23.12256,0,0,0,5.8025-7.6886,25.74792,25.74792,0,0,0,1.6184-7.8707,91.54281,91.54281,0,0,0,.2893-9.9429c-.0589-2.329-.2586-4.8054-1.6522-6.6723a12.58358,12.58358,0,0,0-4.632-3.2939q-7.6677-3.9018-14.9486-8.509c-3.7619-2.3806-7.8659-6.7876-12.5458-4.6331-4.2029,1.9349-8.1267,5.7211-12.0261,8.2691-4.0217,2.628-8.0894,5.2069-11.8787,8.1682a46.58783,46.58783,0,0,0-10.7163,11.246c-.1096.17-.2053.3464-.3118.518,3.4192,26.6703,7.5403,54.0567,10.7461,60.7419,3.6529,7.6173,35.9629,13.5152,59.5545,5.8223C317.443,353.71639,299.42913,326.43859,299.42913,326.43859Z" style="fill: #694bb2"/>
                        <g>
                          <path d="M229.00433,286.515c-33.9382,47.8066-93.59062,61.6226-93.59062,61.6226s-23.4546-15.7393-24.07178-9.8756,15.73918,17.2823,15.73918,17.2823c-9.8756,4.012-33.33018,3.3947-33.33018,3.3947,47.90078,33.1827,129.6794-3.2469,169.6829-43.6958C249.54813,307.50149,236.50443,294.65039,229.00433,286.515Z" style="fill: #f5b3a5"/>
                          <path d="M218.122,338.262c-37.5664,21.702-65.012,16.4045-78.97082,8.8751-2.3948.6894-3.7375,1.0005-3.7375,1.0005s-23.4546-15.7393-24.07178-9.8756,15.73918,17.2823,15.73918,17.2823c-9.8756,4.012-33.33018,3.3947-33.33018,3.3947,47.90078,33.1827,129.6794-3.2469,169.6829-43.6958a94.02186,94.02186,0,0,1-8.4343-5.3529A166.70159,166.70159,0,0,1,218.122,338.262Z" style="fill: #f5b3a5;opacity: 0.30000000000000004;mix-blend-mode: multiply"/>
                          <path d="M279.42623,225.66229a8.10838,8.10838,0,0,0-8.9184-2.4143c-6.2178,2.2551-16.4748,10.6218-28.0054,38.7866a122.1672,122.1672,0,0,1-13.4981,24.4804c7.5001,8.1354,20.5438,20.9865,34.4295,28.7282a113.19008,113.19008,0,0,0,15.1763-18.6439C302.44923,258.95869,286.29633,233.76459,279.42623,225.66229Z" style="fill: #7e59d4"/>
                          <g style="clip-path: url(#clip-path-2)">
                            <path d="M57.64321,340.11359c-.3086-1.2343,68.5121-8.9497,71.2896-1.8516s35.7394,30.8779,89.18922,0,64.5002-70.3637,68.2035-81.7825,10.8014-3.7033,10.8014-3.7033l-5.9497,42.8972s-23.6771,42.28-24.9115,42.5886-83.0169,39.811-83.0169,39.811-60.765-.6172-60.7809,0-43.53042-6.1871-43.53042-6.1871Z" style="fill: #694bb2"/>
                          </g>
                        </g>
                        <g>
                          <path d="M283.49763,193.07319s-1.1937,7.5965,1.3023,10.3094,4.1238,5.1005,2.713,6.7283-5.9686,9.8754-16.7122,7.8135c-10.7434-2.0619,0-24.8512,0-24.8512Z" style="fill: #3f3956"/>
                          <path d="M274.42773,130.96089s12.2788,15.0104,13.1621,19.5257.591,28.1903-2.1359,30.5089-11.6756-2.0334-11.6756-2.0334" style="fill: #7e59d4"/>
                          <path d="M285.45393,180.99549c2.6943-2.2909,3.0116-25.4278,2.1669-30.3363-2.6707,3.6628-1.767,18.5233-6.0001,16.7579-5.4677-2.2802-7.0588-10.8382-7.0588-10.8382l-.4791-.1229-.3045,22.5062S282.727,183.31419,285.45393,180.99549Z" style="fill: #694bb2"/>
                          <path d="M191.252,171.69319s5.2464,17.0075,4.6292,27.792c-.6173,10.7847-9.5671,32.079,9.567,46.5837s59.5622,10.1843,66.969-29.3181-6.4809-58.6366-6.4809-58.6366l-70.6724-2.7774Z" style="fill: #f5b3a5"/>
                          <path d="M201.41253,199.51329a17.72009,17.72009,0,0,0-5.6461,1.3339c-.2038,1.9199-.5941,4.1071-1.0083,6.4854a10.01209,10.01209,0,0,1,6.0888-1.5528,28.31042,28.31042,0,0,0,3.1571.5886,3.89912,3.89912,0,0,0,3.5889-2.1125C209.61553,199.91129,204.13473,199.33409,201.41253,199.51329Z" style="fill: #f5b3a5;opacity: 0.30000000000000004;mix-blend-mode: multiply"/>
                          <path d="M199.47093,155.50209l-6.361,8.6161-1.8579,7.575s1.1889,3.8553,2.3682,9.0576a23.68157,23.68157,0,0,0,5.7923,3.1679,34.95818,34.95818,0,0,0,17.2078,1.4182q.27555-1.2564.5512-2.5127a25.96364,25.96364,0,0,0,7.1881,3.1112,6.97134,6.97134,0,0,0,3.7849.1797,2.89788,2.89788,0,0,0,2.1697-2.8045c2.6533,1.8145,5.7004,3.7169,8.8514,3.0817,3.0817-.6213,5.2703-3.5159,8.3027-4.3444,3.2894-.8987,6.8716.9512,8.8589,3.7222s2.6555,6.2717,2.8994,9.673.1183,6.8427.748,10.194c.7748,4.1226,2.6846,8.0831,2.5579,12.2759-.1192,3.9379-2.0215,7.5725-3.8791,11.0467-2.1048,3.9363-4.3275,8.0107-7.9411,10.6309a22.87416,22.87416,0,0,1-8.2328,3.4312,49.90232,49.90232,0,0,1-27.0488-1.1619c-3.7908-1.2536-7.5468-3.0548-10.1357-6.0944-2.8227-3.3141-3.9458-7.6993-5.7159-11.6765-1.3362-3.0023-3.3579-6.011-6.1176-7.6013-.8516,9.8244.554,20.9146,11.9866,29.5812,19.134,14.5049,59.5624,10.1843,66.9692-29.3181,7.4066-39.5025-6.481-58.6366-6.481-58.6366Z" style="fill: #f5b3a5;opacity: 0.30000000000000004;mix-blend-mode: multiply"/>
                          <path d="M223.85793,177.16009s3.7351,31.171-1.9423,35.0742-14.6417-4.0155-12.1018-9.0952,5.6932-.8485,7.4035-2.8894S219.22633,174.33879,223.85793,177.16009Z" style="fill: #f29c67"/>
                          <path d="M224.05693,178.98459a2.12908,2.12908,0,0,0-.6324.4813,4.3363,4.3363,0,0,0-.6347,3.1733,100.77127,100.77127,0,0,1-.5543,17.5271c-.2963,2.4823-.743,5.0879-2.3374,7.0133a3.272,3.272,0,0,1-1.1417.9435,2.95837,2.95837,0,0,1-1.8026.1205c-2.2204-.4637-3.9954-2.4727-6.2635-2.503a1.35351,1.35351,0,0,0-1.0348.3387.86951.86951,0,0,0-.1328.2003c1.08,4.5471,7.8071,9.1074,12.3928,5.9546C226.76453,208.90069,224.74883,185.69149,224.05693,178.98459Z" style="fill: #f29c67;opacity: 0.30000000000000004;mix-blend-mode: multiply"/>
                          <path d="M244.89733,191.48359c0,2.9796-1.1037,5.395-2.4652,5.395s-2.4652-2.4154-2.4652-5.395,1.1037-5.3951,2.4652-5.3951S244.89733,188.504,244.89733,191.48359Z" style="fill: #3f3956"/>
                          <path d="M206.36363,191.48359c0,2.9796-1.1037,5.395-2.4651,5.395s-2.4653-2.4154-2.4653-5.395,1.1038-5.3951,2.4653-5.3951S206.36363,188.504,206.36363,191.48359Z" style="fill: #3f3956"/>
                          <path d="M239.96693,164.90659s.3959,8.8912,12.7126,14.0555c0,0,5.91-1.0997,6.4562-8.6951S239.96693,164.90659,239.96693,164.90659Z" style="fill: #3f3956"/>
                          <path d="M195.655,164.42579s6.64,13.9075,16.2852,15.9864c0,0,2.5398-6.1256,2.9881-7.9933,0,0,3.4575,8.292,11.6642,9.6367a45.14177,45.14177,0,0,0,1.6328-5.66v-.9138s8.815,6.4244,12.8489,3.8845c0,0,3.5857-6.4245-.8964-14.9405S205.81463,157.105,195.655,164.42579Z" style="fill: #3f3956"/>
                          <path d="M272.40493,180.33659s7.7955-8.213,11.1363-7.6562,10.4403,11.0781,6.2642,18.2065-15.4516,6.7109-16.8436,4.7621S272.40493,180.33659,272.40493,180.33659Z" style="fill: #f5b3a5"/>
                          <path d="M266.14083,172.65339s-2.0881,31.487,0,32.4614,4.0369-7.3778,4.0369-7.3778.9363,5.5761,4.0874,5.1545-.3266-29.7481-2.9726-32.6245S266.14083,172.65339,266.14083,172.65339Z" style="fill: #3f3956"/>
                          <path d="M200.54293,141.82209s7.078-20.1359,9.1526-21.3562,29.1665-13.0578,36.3667-13.0578c7.2,0,27.5272,19.1596,28.5298,23.5528s-.8137,48.0012-.8137,48.0012l-18.0754-10.4142-24.6512-11.5933-28.9224-5.0035Z" style="fill: #fff"/>
                          <path d="M273.77833,178.96219s.4548-10.9211.7836-22.3833c-.8987-1.8047-1.7498-3.6322-2.6198-5.3947-1.1602-2.3505-2.5633-4.7985-4.9516-5.9665-3.7075-1.8133-8.0613.122-12.1474.8091a18.27159,18.27159,0,0,1-13.1162-2.6901,15.09221,15.09221,0,0,1-6.6733-11.2244c-.3123-4.6259,1.7084-9.447.0668-13.7967-3.6143,1.3903-5.9576,4.7367-8.358,7.7207s-5.5055,5.9758-9.388,6.0944c-4.288.1311-7.9689-3.5549-8.9484-7.6361a12.70809,12.70809,0,0,1-.2871-1.7181c-2.8593,5.5711-7.596,19.0456-7.596,19.0456l1.5864,10.129,28.9224,5.0035,24.6512,11.5933Z" style="fill: #3f3956;opacity: 0.1;mix-blend-mode: multiply"/>
                          <path d="M237.07813,184.76589s5.9621-3.7872,16.0519,2.5347a2.62407,2.62407,0,0,0,.8408-3.0035c-.7643-1.7582-7.5674-4.5099-11.0835-4.1277S235.39643,180.80149,237.07813,184.76589Z" style="fill: #3f3956"/>
                          <path d="M206.53023,183.82109s-6.5662-2.6031-15.2927,5.4974a2.624,2.624,0,0,1-1.3887-2.7928c.4214-1.8702,6.5882-5.8478,10.1137-6.1313S207.43923,179.61179,206.53023,183.82109Z" style="fill: #3f3956"/>
                          <g>
                            <path d="M247.03843,219.02669c.8095,8.8552-8.0878,16.9072-19.873,17.9849-11.785,1.0775-21.9951-5.2276-22.8048-14.0829s8.9494-3.8623,20.7345-4.9399S246.22873,210.17139,247.03843,219.02669Z" style="fill: #c55754"/>
                            <path d="M247.03843,219.02669c.8095,8.8552-8.0878,16.9072-19.873,17.9849-11.785,1.0775-21.9951-5.2276-22.8048-14.0829s8.9494-3.8623,20.7345-4.9399S246.22873,210.17139,247.03843,219.02669Z" style="fill: #c55754;opacity: 0.30000000000000004;mix-blend-mode: multiply"/>
                            <path d="M244.52743,227.88039c-14.6702-6.6445-19.5633,4.7252-20.8833,9.2328a28.538,28.538,0,0,0,3.5213-.1016C234.76443,236.31669,241.15783,232.72019,244.52743,227.88039Z" style="fill: #c55754"/>
                            <g style="clip-path: url(#clip-path-3)">
                              <path d="M206.97363,217.12469s-1.3977,4.1931,2.7954,5.3911,4.5924-3.5941,4.3928-5.6308S206.97363,217.12469,206.97363,217.12469Z" style="fill: #fff"/>
                              <path d="M214.76083,217.08469s.0399,5.1713,2.8354,5.6206,5.3511-.7886,5.0316-5.6206S214.76083,217.08469,214.76083,217.08469Z" style="fill: #fff"/>
                              <path d="M223.26683,217.12469a3.84554,3.84554,0,0,0,4.5525,4.1132c4.7921-.4393,4.872-4.5126,4.1532-5.471S223.26683,217.12469,223.26683,217.12469Z" style="fill: #fff"/>
                              <path d="M232.61143,215.84669a4.87049,4.87049,0,0,0,5.8703,3.0174c4.4727-1.0206,2.9153-5.3335,2.9153-5.3335S233.05073,213.59529,232.61143,215.84669Z" style="fill: #fff"/>
                            </g>
                          </g>
                          <path d="M190.63183,172.65339s.0013,8.7719,16.0306,4.2753c16.0294-4.4968-8.0154-14.8802-8.0154-14.8802l-8.0152,5.078Z" style="fill: #3f3956"/>
                          <path d="M273.77833,178.96209s-34.6429-19.6452-71.9494-15.1906c0,0-11.7994.9532-9.3274,12.3927,0,0-29.23192-12.6712-25.195-25.8955s43.37722-11.934,49.04752-10.3011C248.74043,149.29429,271.67153,174.80359,273.77833,178.96209Z" style="fill: #7e59d4"/>
                          <path d="M229.10783,144.61959c.6114,3.3281-.1889,6.8885-2.7414,9.0356-3.6564,3.0757-9.0791,2.2473-13.7636,1.3063-3.9922-.8019-8.0918-1.5635-12.1127-.9201-5.1801.8288-9.7999,3.9248-14.9941,4.6589-6.6999.9466-13.4621-2.2551-18.32752-6.9575-.052-.0502-.103-.1022-.15458-.153-1.82392,12.7345,25.4875,24.5744,25.4875,24.5744-2.4719-11.4395,9.3275-12.3927,9.3275-12.3927,37.3065-4.4546,71.9494,15.1907,71.9494,15.1907C271.96033,175.37359,254.634,155.88759,229.10783,144.61959Z" style="fill: #694bb2"/>
                        </g>
                      </g>
                    </g>
                  </g>
                  <g>
                    <path d="M68.27171,304.56c1.3845-.0772,2.99-.167,4.7306-.2653l-.3128-2.7372-4.6808.308Z" style="fill: #be8c5b"/>
                    <path d="M96.97171,302.85579c2.22122-.1537,3.6495-.2716,3.7919-.3286a8.01753,8.01753,0,0,0,.4868-2.8494l-4.5596.3Z" style="fill: #be8c5b"/>
                    <path d="M89.80011,303.31559c1.6955-.1036,3.2886-.2031,4.7064-.2951l-.3289-2.8772-4.6572.3064Z" style="fill: #be8c5b"/>
                    <path d="M82.62511,303.743c1.5936-.0931,3.17982-.1867,4.7155-.2787l-.32568-2.8496-4.66522.307Z" style="fill: #be8c5b"/>
                    <path d="M75.44893,304.15619c1.52458-.0867,3.11428-.1776,4.72328-.2707l-.32-2.7995-4.673.3076Z" style="fill: #be8c5b"/>
                    <path d="M92.51111,285.56069l-.4501-3.9383c-1.38008-.0434-2.8556-.0902-4.3919-.1389l.3729,3.8202Z" style="fill: #be8c5b"/>
                    <path d="M95.87461,291.61529l5.8231-.0539c.0347-1.033.0625-2.0555.0818-3.0289l-6.2341-.2898Z" style="fill: #be8c5b"/>
                    <path d="M70.71811,284.30759l-.3859-3.3764c-1.5616-.0499-3.0374-.0972-4.3805-.1402l.3183,3.2608Z" style="fill: #be8c5b"/>
                    <path d="M85.24671,285.143l-.4285-3.7501c-1.4419-.0457-2.914-.0925-4.3882-.1395l.3546,3.633Z" style="fill: #be8c5b"/>
                    <path d="M77.98241,284.72529l-.4071-3.5629c-1.4875-.0474-2.9581-.0944-4.38438-.14l.33648,3.4467Z" style="fill: #be8c5b"/>
                    <path d="M101.57641,281.91509c-.147,0-2.7779-.0809-6.6684-.203l.3913,4.009,6.5107.3744C101.82,283.64449,101.75221,281.91509,101.57641,281.91509Z" style="fill: #be8c5b"/>
                    <polygon points="82.091 298.271 86.719 298.023 86.295 294.318 81.715 294.413 82.091 298.271" style="fill: #be8c5b"/>
                    <polygon points="81.454 291.749 85.997 291.707 85.548 287.778 81.046 287.569 81.454 291.749" style="fill: #be8c5b"/>
                    <polygon points="88.665 291.682 93.206 291.64 92.803 288.115 88.296 287.906 88.665 291.682" style="fill: #be8c5b"/>
                    <polygon points="89.27 297.885 93.891 297.637 93.495 294.169 88.917 294.264 89.27 297.885" style="fill: #be8c5b"/>
                    <polygon points="67.733 299.044 72.374 298.794 71.896 294.617 67.311 294.712 67.733 299.044" style="fill: #be8c5b"/>
                    <polygon points="67.034 291.883 71.579 291.84 71.038 287.103 66.547 286.895 67.034 291.883" style="fill: #be8c5b"/>
                    <path d="M96.44893,297.49929l4.98268-.2679c.0635-1.0118.1214-2.1041.1714-3.2304l-5.4844.1137Z" style="fill: #be8c5b"/>
                    <polygon points="74.912 298.657 79.546 298.408 79.096 294.468 74.513 294.563 74.912 298.657" style="fill: #be8c5b"/>
                    <polygon points="74.245 291.816 78.788 291.774 78.293 287.44 73.797 287.232 74.245 291.816" style="fill: #be8c5b"/>
                    <path d="M99.35821,314.83359a1.82572,1.82572,0,0,0-1.7334-1.6201c-5.9941-.3521-32.208-1.8895-32.87588-1.8895-.75422,0-1.50842-6.4858-1.50842-6.4858s.9698-.0529,2.591-.1427l-.3048-2.6667-2.7745.1826-.4094-2.8779,2.8584-.1537-.5044-4.4134-2.9285.0608-.5015-2.891,3.1033-.0288-.5877-5.1414-3.1954.1286-.4986-3.1982,3.3654.1934-.3647-3.1904c-2.78218-.0891-4.5243-.145-4.5243-.145a15.03964,15.03964,0,0,0-5.8824-2.4133c-3.4692-.6034-3.6199,2.5641-2.1116,3.3183s6.7483,1.6924,6.9667,3.3182c0,0,2.9065,21.8429,4.1828,28.0686a3.82242,3.82242,0,1,0,5.3714,2.1128c6.7643.4637,18.9091,1.0632,26.0668,1.1955a3.7979,3.7979,0,1,0,6.1997-1.3209Zm-34.07228,1.6122a1.777,1.777,0,1,1-1.82392-1.7722c.1364.0133.27992.0269.4356.0408A1.77556,1.77556,0,0,1,65.28593,316.44579Zm31.40488,2.8699a1.76984,1.76984,0,0,1-1.13388-3.1346c.91128.0014,1.66238-.0112,2.22018-.0393a1.77064,1.77064,0,0,1-1.0863,3.1739Z" style="fill: #be8c5b"/>
                  </g>
                </g>
              </g>
              <g style="opacity: 0.5">
                <path d="M368.00573,391.29859a3.72286,3.72286,0,0,0,4.0359-.3523,4.73765,4.73765,0,0,0-.9907-8.2256c-1.9161-.7717-4.1085,1.3906-4.9006,3.0571A4.65392,4.65392,0,0,0,368.00573,391.29859Z" style="fill: #7e59d4"/>
                <path d="M364.08393,323.91639c1.2187.7538,6.9081-2.4379,8.0658-3.2826,1.3574-.9906,2.0121-3.7461,1.8137-5.4149a4.6423,4.6423,0,0,0-3.8771-4.0759c-2.0397-.3267-6.0864.5253-5.9087,2.3618C364.459,316.41339,362.366,322.85389,364.08393,323.91639Z" style="fill: #7e59d4"/>
                <path d="M356.85173,278.641a2.17851,2.17851,0,0,0,2.3615-.2062,2.7722,2.7722,0,0,0-.5797-4.8131c-1.1212-.4516-2.4041.8137-2.8675,1.7888A2.72322,2.72322,0,0,0,356.85173,278.641Z" style="fill: #7e59d4"/>
                <path d="M132.55521,392.696a2.17887,2.17887,0,0,0,2.36172-.2061,2.77218,2.77218,0,0,0-.57982-4.8131c-1.12118-.4516-2.4041.8137-2.8676,1.7888A2.72319,2.72319,0,0,0,132.55521,392.696Z" style="fill: #7e59d4"/>
                <path d="M144.11361,384.98609a2.17826,2.17826,0,0,0,2.3616-.2061,2.7722,2.7722,0,0,0-.5797-4.8131c-1.1212-.4516-2.4041.8137-2.8675,1.7889A2.723,2.723,0,0,0,144.11361,384.98609Z" style="fill: #7e59d4"/>
                <path d="M317.29673,268.62449a2.17827,2.17827,0,0,0,2.3616-.2061,2.77231,2.77231,0,0,0-.5797-4.8131c-1.1212-.4515-2.4041.8137-2.8676,1.7889A2.723,2.723,0,0,0,317.29673,268.62449Z" style="fill: #7e59d4"/>
                <path d="M312.15613,250.52449a3.80986,3.80986,0,0,0,4.8484,2.0707,5.23787,5.23787,0,0,0,2.4407-3.0015c1.3032-3.3354,1.2666-8.4313-3.5361-6.7546C313.25253,243.76659,311.05113,247.86889,312.15613,250.52449Z" style="fill: #7e59d4"/>
                <path d="M354.99463,293.85479a3.81,3.81,0,0,0,5.1755-1.0044,5.23763,5.23763,0,0,0,.3376-3.8539c-.7914-3.4923-3.6794-7.6911-6.7155-3.6096C352.11273,287.64469,352.59053,292.27569,354.99463,293.85479Z" style="fill: #7e59d4"/>
                <path d="M143.46761,400.87179a3.80979,3.80979,0,0,0,5.1755-1.0043,5.23762,5.23762,0,0,0,.3376-3.8539c-.7914-3.4924-3.6794-7.6911-6.7155-3.6096C140.58571,394.66169,141.06351,399.29269,143.46761,400.87179Z" style="fill: #7e59d4"/>
              </g>
            </g>
          </g>
          <path d="M93.34481,408.67859c3.0059,8.9547-7.9773,15.9545-16.1281,1.3169-3.7806-6.7895-7.4751-13.8535-7.7847-21.6184a32.58362,32.58362,0,0,1,6.9655-21.719c2.9691-3.6491,10.7418-6.5368,12.2911-.0529.724,3.0295.018,6.6161-.0149,9.6956C88.63141,380.275,87.31751,390.72279,93.34481,408.67859Z" style="fill: #5f409b"/>
          <path d="M90.73041,431.14429a7.30747,7.30747,0,0,0,3.6043,3.1785,14.01613,14.01613,0,0,0,4.76722,1.0122,4.51179,4.51179,0,0,0,2.67878-.4369,3.34228,3.34228,0,0,0,1.2754-3.3712,9.81824,9.81824,0,0,0-1.5426-3.4672c-1.6331-2.6714-3.7115-8.6405-7.824-7.3369C89.79561,421.957,89.081,427.994,90.73041,431.14429Z" style="fill: #5f409b"/>
        </g>
      </g>
    </g>
  </g>
</svg>
